<svg width="105" height="71" viewBox="0 0 105 71" fill="none" xmlns="http://www.w3.org/2000/svg"><path d="M1 70.356h102.837M52.42 2.17h-2.835v67.988h2.835V2.171zm.859.79h19.384M48.645 1h42.874m-38.24 6.18h19.384M53.279 11.4h19.384m-19.384 4.22h19.384m-19.384 4.22h18.724m-18.724 4.22h16.086m-16.086 4.221h13.45m-13.45 4.22h8.044m-8.044 4.22h4.02m-7.714 4.219h-7.78m7.78 4.221H36.398m13.187 4.219h-19.12m19.12 4.22H28.222m21.363 4.22H26.377m23.208 4.22H26.377m23.208 4.22h-20.44" stroke="#393939" stroke-miterlimit="10" stroke-linecap="round" stroke-linejoin="round"/></svg>