<?xml version="1.0" encoding="utf-8"?><svg xmlns="http://www.w3.org/2000/svg" xmlns:xlink="http://www.w3.org/1999/xlink"><symbol viewBox="0 0 10 13" id="arrow-down" xmlns="http://www.w3.org/2000/svg"><path d="M9.024 8.38a.42.42 0 000-.618.469.469 0 00-.638 0L5.12 10.894V.558a.44.44 0 00-.452-.432.445.445 0 00-.457.432v10.336L.95 7.762a.477.477 0 00-.645 0 .42.42 0 000 .618l4.04 3.873a.457.457 0 00.638 0l4.04-3.873z"/></symbol><symbol viewBox="0 0 16 55" id="arrow-down-long" xmlns="http://www.w3.org/2000/svg"><path d="M7.293 54.707a1 1 0 001.414 0l6.364-6.364a1 1 0 00-1.414-1.414L8 52.586l-5.657-5.657A1 1 0 00.93 48.343l6.364 6.364zM7 0v54h2V0H7z"/></symbol><symbol viewBox="0 0 13 10" id="arrow-left" xmlns="http://www.w3.org/2000/svg"><path d="M4.627 9.796a.42.42 0 00.617 0 .469.469 0 000-.638L2.112 5.891h10.336a.44.44 0 00.433-.45.445.445 0 00-.433-.458H2.112l3.132-3.261a.477.477 0 000-.644.42.42 0 00-.617 0L.753 5.118a.457.457 0 000 .637l3.874 4.041z"/></symbol><symbol viewBox="0 0 13 10" id="arrow-left-wt" xmlns="http://www.w3.org/2000/svg"><path d="M4.627 9.796a.42.42 0 00.617 0 .469.469 0 000-.638L2.112 5.891h10.336a.44.44 0 00.433-.45.445.445 0 00-.433-.458H2.112l3.132-3.261a.477.477 0 000-.644.42.42 0 00-.617 0L.753 5.118a.457.457 0 000 .637l3.874 4.041z"/></symbol><symbol viewBox="0 0 14 10" id="arrow-right" xmlns="http://www.w3.org/2000/svg"><path d="M9.15 1.021a.42.42 0 00-.618 0 .469.469 0 000 .638l3.133 3.267H1.329a.44.44 0 00-.433.451c0 .252.192.458.433.458h10.336l-3.133 3.26a.477.477 0 000 .645.42.42 0 00.618 0l3.874-4.04a.457.457 0 000-.638L9.15 1.022z"/></symbol><symbol viewBox="0 0 14 10" id="arrow-right-accent" xmlns="http://www.w3.org/2000/svg"><path d="M9.15 1.021a.42.42 0 00-.618 0 .469.469 0 000 .638l3.133 3.267H1.329a.44.44 0 00-.433.451c0 .252.192.458.433.458h10.336l-3.133 3.26a.477.477 0 000 .645.42.42 0 00.618 0l3.874-4.04a.457.457 0 000-.638L9.15 1.022z"/></symbol><symbol viewBox="0 0 14 10" id="arrow-right-wt" xmlns="http://www.w3.org/2000/svg"><path d="M9.15 1.021a.42.42 0 00-.618 0 .469.469 0 000 .638l3.133 3.267H1.329a.44.44 0 00-.433.451c0 .252.192.458.433.458h10.336l-3.133 3.26a.477.477 0 000 .645.42.42 0 00.618 0l3.874-4.04a.457.457 0 000-.638L9.15 1.022z"/></symbol><symbol viewBox="0 0 21 14" id="breadcrumbs-logo" xmlns="http://www.w3.org/2000/svg"><path d="M12.617 13.576h-4.63L3.994 5.038 6.35 0l6.267 13.576zm8.296 0h-4.628L12.29 5.038 14.647 0l6.266 13.576zM0 13.573h4.28l-2.14-4.57L0 13.573z"/></symbol><symbol viewBox="0 0 43 15" id="burger" xmlns="http://www.w3.org/2000/svg"><path d="M1.344 2.612h40.312c.741 0 1.343-.389 1.343-.867s-.602-.867-1.343-.867H1.344C.602.878 0 1.267 0 1.745s.602.867 1.344.867zm40.312 4.332H1.344C.602 6.944 0 7.333 0 7.811s.602.866 1.344.866h40.312c.741 0 1.343-.388 1.343-.866s-.602-.867-1.343-.867zm0 6.066H14.78c-.742 0-1.344.389-1.344.867s.603.866 1.344.866h26.875c.742 0 1.343-.388 1.343-.866s-.601-.867-1.343-.867z"/></symbol><symbol viewBox="0 0 18 17" id="close" xmlns="http://www.w3.org/2000/svg"><path d="M1.354.646l16 16m-16.708 0l16-16"/></symbol><symbol viewBox="0 0 47 58" id="doc" xmlns="http://www.w3.org/2000/svg"><path d="M1 33.454V1h44.523v56.137H1V44.471m9.297-22.035h7.698m2.397 0h17.793M10.297 29.78h13.944m2.027 0h11.917m-27.888 7.345h27.888m-27.888 7.347h10.095m1.643 0h16.15"/></symbol><symbol viewBox="0 0 35 35" id="fb" xmlns="http://www.w3.org/2000/svg"><path d="M35 17.5C35 7.836 27.163 0 17.5 0 7.836 0 0 7.836 0 17.5 0 27.163 7.836 35 17.5 35c.103 0 .205-.002.308-.004V21.373h-3.76v-4.382h3.76v-3.224c0-3.74 2.282-5.775 5.618-5.775 1.598 0 2.97.12 3.37.172v3.909h-2.3c-1.814 0-2.165.862-2.165 2.128v2.79h4.339l-.566 4.382h-3.773v12.95C29.645 32.228 35 25.489 35 17.5z"/></symbol><symbol viewBox="0 0 35 35" id="inst" xmlns="http://www.w3.org/2000/svg"><path d="M20.85 17.5a3.35 3.35 0 11-6.7 0 3.35 3.35 0 016.7 0z"/><path d="M25.334 11.573a3.123 3.123 0 00-.752-1.155 3.117 3.117 0 00-1.156-.751c-.354-.138-.885-.301-1.865-.346-1.06-.048-1.377-.059-4.061-.059s-3.001.01-4.061.059c-.98.045-1.512.208-1.866.346a3.117 3.117 0 00-1.156.751c-.333.324-.59.719-.752 1.155-.137.354-.301.887-.346 1.866-.048 1.06-.059 1.377-.059 4.061s.01 3.001.059 4.061c.044.98.208 1.512.346 1.866.162.437.418.831.752 1.155.324.334.719.591 1.155.752.354.138.886.301 1.866.346 1.06.049 1.377.059 4.06.059 2.684 0 3.001-.01 4.061-.059.979-.045 1.512-.208 1.865-.346a3.328 3.328 0 001.908-1.907c.137-.354.301-.886.346-1.866.049-1.06.059-1.377.059-4.061 0-2.683-.01-3.001-.059-4.061-.043-.979-.207-1.511-.344-1.866zM17.5 22.66a5.16 5.16 0 110-10.32 5.16 5.16 0 010 10.32zm5.363-9.318a1.206 1.206 0 11.002-2.412 1.206 1.206 0 01-.002 2.412z"/><path d="M17.5 0C7.836 0 0 7.836 0 17.5S7.836 35 17.5 35 35 27.164 35 17.5 27.164 0 17.5 0zm9.988 21.643c-.049 1.07-.219 1.801-.467 2.439a5.14 5.14 0 01-2.939 2.939c-.639.248-1.369.418-2.439.467s-1.413.061-4.142.061-3.072-.012-4.144-.061c-1.069-.049-1.8-.219-2.439-.467a4.923 4.923 0 01-1.78-1.16 4.909 4.909 0 01-1.159-1.779c-.248-.639-.418-1.369-.467-2.439-.049-1.071-.061-1.414-.061-4.143s.012-3.071.061-4.143c.049-1.07.218-1.8.467-2.439a4.91 4.91 0 011.16-1.78 4.904 4.904 0 011.779-1.159c.64-.249 1.37-.418 2.439-.467 1.072-.049 1.414-.061 4.143-.061s3.071.012 4.143.061c1.07.048 1.801.218 2.439.466a4.91 4.91 0 011.78 1.16 4.92 4.92 0 011.159 1.78c.248.639.418 1.369.467 2.439.049 1.072.061 1.414.061 4.143s-.012 3.071-.061 4.143z"/></symbol><symbol viewBox="0 0 21 21" id="magnifier" xmlns="http://www.w3.org/2000/svg"><path d="M20.8 19.858l-5.421-5.336a8.572 8.572 0 002.292-5.827C17.671 3.892 13.715 0 8.835 0 3.955 0 0 3.892 0 8.695c0 4.802 3.955 8.694 8.835 8.694a8.886 8.886 0 005.561-1.941l5.443 5.356a.687.687 0 00.961 0 .662.662 0 000-.946zM8.836 16.052c-4.129 0-7.476-3.294-7.476-7.357 0-4.063 3.347-7.357 7.476-7.357s7.476 3.294 7.476 7.357c0 4.063-3.347 7.357-7.476 7.357z"/></symbol><symbol viewBox="0 0 35 35" id="mail" xmlns="http://www.w3.org/2000/svg"><path d="M17.5 0C7.835 0 0 7.835 0 17.5 0 27.164 7.835 35 17.5 35 27.164 35 35 27.164 35 17.5 35 7.835 27.164 0 17.5 0zm0 6.147l10.356 6.457H7.144L17.5 6.147zm10.485 16.77h-.001c0 1.035-.84 1.874-1.875 1.874H8.89a1.875 1.875 0 01-1.875-1.875v-9.9c0-.11.011-.217.03-.322l9.894 6.17c.012.008.025.013.037.02a1.253 1.253 0 00.256.105l.022.005c.081.019.163.03.245.03h.001c.082 0 .164-.01.244-.03l.023-.005a1.052 1.052 0 00.255-.105c.013-.007.026-.012.038-.02l9.894-6.17c.019.105.03.211.03.321v9.901z"/></symbol><symbol viewBox="0 0 15 11" id="main-slider-back" xmlns="http://www.w3.org/2000/svg"><path d="M4.9 10.835c.204.22.544.22.755 0a.573.573 0 000-.78c-1.44-1.504-.375-4 1.705-4h7.11c.296 0 .53-.245.53-.552 0-.308-.234-.56-.53-.56H7.356c-2.077 0-3.139-2.492-1.7-3.99a.584.584 0 000-.789.514.514 0 00-.756 0L.16 5.11a.56.56 0 000 .78l4.74 4.945z"/></symbol><symbol viewBox="0 0 15 11" id="main-slider-forw" xmlns="http://www.w3.org/2000/svg"><path d="M10.1.165a.514.514 0 00-.755 0 .573.573 0 000 .78c1.44 1.503.376 3.999-1.705 3.999H.53a.538.538 0 00-.53.552c0 .308.234.56.53.56h7.115c2.077 0 3.139 2.492 1.7 3.99a.584.584 0 000 .789c.211.22.552.22.756 0l4.74-4.945a.56.56 0 000-.78L10.101.165z"/></symbol><symbol viewBox="0 0 35 35" id="pint" xmlns="http://www.w3.org/2000/svg"><path d="M17.5 0C7.836 0 0 7.836 0 17.5 0 27.167 7.836 35 17.5 35S35 27.167 35 17.5C35 7.836 27.164 0 17.5 0zm1.807 21.396c-1.085 0-2.107-.585-2.458-1.254 0 0-.584 2.316-.706 2.761-.436 1.58-1.716 3.163-1.815 3.291-.069.09-.223.063-.24-.059-.027-.203-.354-2.194.03-3.818.194-.816 1.294-5.479 1.294-5.479s-.322-.64-.322-1.589c0-1.49.864-2.602 1.94-2.602.914 0 1.356.686 1.356 1.508 0 .92-.585 2.296-.888 3.57-.252 1.067.534 1.936 1.586 1.936 1.902 0 3.186-2.445 3.186-5.346 0-2.203-1.482-3.851-4.182-3.851-3.048 0-4.948 2.275-4.948 4.815 0 .876.258 1.493.663 1.97.186.22.211.31.144.562-.049.183-.158.63-.205.805-.067.255-.274.344-.503.25-1.405-.57-2.059-2.11-2.059-3.841 0-2.854 2.408-6.278 7.184-6.278 3.838 0 6.362 2.777 6.362 5.76.005 3.944-2.187 6.889-5.42 6.889z"/></symbol><symbol viewBox="0 0 68 67" id="play" xmlns="http://www.w3.org/2000/svg"><path d="M33.968.584C15.318.584.2 15.447.2 33.782S15.32 66.98 33.97 66.98c18.65 0 33.769-14.863 33.769-33.198S52.618.584 33.968.584zM45.64 35.542L28.755 45.916a2.138 2.138 0 01-2.142.055 2.069 2.069 0 01-1.087-1.814v-20.75c0-.754.416-1.448 1.087-1.814a2.136 2.136 0 012.142.055L45.64 32.022a2.07 2.07 0 01.992 1.76 2.07 2.07 0 01-.992 1.76z"/></symbol><symbol viewBox="0 0 26 24" id="star-empty" xmlns="http://www.w3.org/2000/svg"><path d="M13 1.618l2.443 7.519.111.346h8.269l-6.396 4.647-.294.214.112.346 2.443 7.519-6.396-4.647-.292-.214-.294.213-6.396 4.647 2.443-7.519.112-.346-.294-.213-6.396-4.647h8.269l.112-.346L13 1.618z"/><path d="M20.642 23.518L13 17.965v.001l-7.641 5.552 2.918-8.983L.636 8.983h9.445L13 0l2.919 8.982h9.444l-7.641 5.552 2.92 8.984zM3.714 9.983l5.739 4.17-2.192 6.745L13 16.73l5.739 4.168-2.192-6.745 5.738-4.17H15.19L13 3.236l-2.191 6.747H3.714z"/></symbol><symbol viewBox="0 0 26 24" id="star-empty-wt" xmlns="http://www.w3.org/2000/svg"><path d="M13 1.618l2.443 7.52.112.345h8.27l-6.396 4.647-.294.213.112.346 2.443 7.52-6.396-4.648-.294-.213-.294.213-6.396 4.647 2.443-7.519.112-.345-.294-.214-6.396-4.647h8.27l.112-.346L13 1.618z"/></symbol><symbol viewBox="0 0 26 24" id="star-filled" xmlns="http://www.w3.org/2000/svg"><path d="M13 1.618l2.443 7.52.112.345h8.27l-6.396 4.647-.294.213.112.346 2.443 7.52-6.396-4.648-.294-.213-.294.213-6.396 4.647 2.443-7.519.112-.345-.294-.214-6.396-4.647h8.27l.112-.346L13 1.618z"/></symbol><symbol viewBox="0 0 35 35" id="telegram" xmlns="http://www.w3.org/2000/svg"><path d="M17.5 35C27.167 35 35 27.167 35 17.5S27.167 0 17.5 0 0 7.833 0 17.5 7.833 35 17.5 35zM8.008 17.12l16.873-6.505c.783-.283 1.467.191 1.213 1.375l.001-.001-2.872 13.535c-.213.96-.784 1.193-1.581.74l-4.375-3.224-2.11 2.033c-.234.233-.43.43-.883.43l.31-4.452 8.11-7.325c.352-.31-.08-.486-.545-.177l-10.02 6.31-4.32-1.348c-.937-.298-.958-.938.199-1.39z"/></symbol><symbol viewBox="0 0 35 35" id="viber" xmlns="http://www.w3.org/2000/svg"><path d="M29.87 5.128c-6.838-6.837-17.916-6.837-24.746 0-6.576 6.576-6.824 17.094-.735 23.968l.182.145c-.662 1.426-1.797 3.186-3.601 4.074-.596.29-.458 1.178.196 1.28 1.972.306 4.801-.036 7.442-2.03l.036.03c6.707 3.942 15.48 3.04 21.24-2.72 6.824-6.831 6.824-17.917-.014-24.747zm-6.605 19.858c-.385.393-.793.757-1.157 1.164-.53.596-1.2.786-1.956.742-1.106-.058-2.132-.43-3.114-.91a16.923 16.923 0 01-5.622-4.4c-1.157-1.375-2.11-2.873-2.743-4.568-.305-.822-.523-1.659-.458-2.546a2.095 2.095 0 01.647-1.397c.437-.414.844-.844 1.273-1.265.56-.553 1.259-.546 1.819 0 .35.342.684.683 1.025 1.025.335.335.67.662.997.997.582.589.582 1.273 0 1.862-.415.422-.83.844-1.258 1.251-.11.11-.124.197-.066.335.277.669.684 1.265 1.135 1.818.91 1.12 1.942 2.117 3.179 2.888.262.167.553.284.829.436.138.08.24.051.35-.065.414-.43.843-.851 1.265-1.273.56-.553 1.258-.553 1.811 0 .684.676 1.36 1.353 2.037 2.037.582.596.582 1.294.007 1.87zm-6.452-11.304l.218-1.556a6.904 6.904 0 013.95 1.97 6.87 6.87 0 011.935 3.732l-1.55.27a5.342 5.342 0 00-1.498-2.888 5.317 5.317 0 00-3.055-1.528zm8.634 4.146a9.931 9.931 0 00-2.771-5.353 9.901 9.901 0 00-5.66-2.822l.219-1.557a11.404 11.404 0 016.547 3.266 11.496 11.496 0 013.215 6.197l-1.55.27z"/></symbol><symbol viewBox="0 0 35 35" id="yt" xmlns="http://www.w3.org/2000/svg"><path d="M15.32 20.779l5.692-3.279-5.692-3.279v6.558z"/><path d="M17.5 0C7.836 0 0 7.836 0 17.5S7.836 35 17.5 35 35 27.164 35 17.5 27.164 0 17.5 0zm10.935 17.518s0 3.548-.45 5.26a2.74 2.74 0 01-1.928 1.928c-1.711.45-8.557.45-8.557.45s-6.828 0-8.557-.469a2.74 2.74 0 01-1.928-1.928c-.45-1.693-.45-5.26-.45-5.26s0-3.549.45-5.26a2.798 2.798 0 011.928-1.946c1.711-.45 8.557-.45 8.557-.45s6.846 0 8.557.468a2.738 2.738 0 011.928 1.928c.468 1.712.45 5.279.45 5.279z"/></symbol></svg>