<svg xmlns="http://www.w3.org/2000/svg" width="99.323" height="47.76" viewBox="0 0 99.323 47.76"><path fill="#FF4D00" d="M99.323 0H20C8.954 0 0 8.954 0 20v27.76h45.618C85.38 47.76 97.003 9.714 99.323 0z"/><path fill="#FFF" d="M63.902 25.848c-.301 0-.554-.095-.759-.286-.198-.198-.297-.436-.297-.715s.099-.51.297-.693c.198-.191.451-.286.759-.286s.561.095.759.286c.198.183.297.414.297.693s-.103.517-.308.715c-.198.19-.448.286-.748.286zm-1.024-7.788h2.046l-.341 5.027H63.22l-.342-5.027zm-4.19 3.179c-.367 0-.646.066-.836.198-.184.132-.275.345-.275.638s.088.51.264.649c.184.132.458.198.825.198h1.287v-1.683h-1.265zm2.794-1.397v5.918h-1.529v-1.694h-1.265l-1.122 1.694H55.74l1.353-1.936c-.411-.161-.726-.392-.946-.693-.213-.308-.319-.678-.319-1.111 0-.696.249-1.232.748-1.606.506-.381 1.199-.572 2.079-.572h2.827zm-13.067 0h1.705v3.52l2.882-3.52h1.573v5.918H52.87v-3.52l-2.871 3.52h-1.584v-5.918zm-1.079 4.51v2.706h-1.595V25.76H40.67v-5.918h1.705v4.51h2.387v-4.51h1.716v4.51h.858zm-11.117-.836h-.891v2.244h-1.716v-5.918h1.716v2.299h.924l1.606-2.299h1.826l-2.068 2.838 2.211 3.08h-2.024l-1.584-2.244zm-6.609-.759l-1.221-2.948-1.221 2.948h2.442zm.561 1.353h-3.575l-.682 1.65h-1.826l3.432-7.7h1.76l3.443 7.7h-1.87l-.682-1.65z"/></svg>