<svg xmlns="http://www.w3.org/2000/svg" width="99.323" height="47.76" viewBox="0 0 99.323 47.76"><path fill="#299717" d="M99.323 0H20C8.954 0 0 8.954 0 20v27.76h45.618C85.38 47.76 97.003 9.714 99.323 0z"/><path fill="#FFF" d="M68.238 24.492c.293 0 .553-.066.78-.198.228-.139.389-.341.483-.605v-.605h-1.176c-.705 0-1.057.231-1.057.693 0 .22.084.396.253.528.178.124.417.187.717.187zm.131-4.939c.917 0 1.621.22 2.112.66.491.433.737 1.089.737 1.969v3.377h-1.605v-.737c-.323.55-.925.825-1.805.825-.455 0-.851-.077-1.188-.231a1.774 1.774 0 0 1-.76-.638 1.661 1.661 0 0 1-.264-.924c0-.55.205-.982.615-1.298.419-.315 1.061-.473 1.926-.473H69.5c0-.374-.113-.66-.34-.858-.229-.206-.568-.308-1.023-.308-.315 0-.627.051-.936.154a2.373 2.373 0 0 0-.77.396l-.616-1.199a3.723 3.723 0 0 1 1.155-.528 5.282 5.282 0 0 1 1.399-.187zm-6.641 3.761h-.892v2.244h-1.715V19.64h1.715v2.299h.924l1.606-2.299h1.826l-2.067 2.838 2.211 3.08h-2.024l-1.584-2.244zm-10.246-3.673h1.705v2.31h2.574v-2.31h1.716v5.918h-1.716v-2.211h-2.574v2.211h-1.705v-5.918zm-7.808 0h1.704v3.52l2.882-3.52h1.573v5.918h-1.705v-3.52l-2.87 3.52h-1.584v-5.918zm-3.83 4.752c.631 0 .947-.216.947-.649 0-.228-.074-.393-.221-.495-.146-.11-.377-.165-.693-.165h-1.474v1.309h1.441zm-1.441-2.321h1.298c.602 0 .902-.213.902-.638 0-.418-.301-.627-.902-.627h-1.298v1.265zm2.949.396c.696.234 1.045.704 1.045 1.408 0 .536-.201.95-.605 1.243-.402.293-1.004.44-1.804.44H36.83v-5.918h3.025c.74 0 1.32.136 1.738.407.418.264.627.638.627 1.122 0 .293-.077.554-.231.781a1.464 1.464 0 0 1-.637.517zm-8.947 1.771c.44 0 .8-.147 1.077-.44.287-.301.43-.701.43-1.199s-.143-.895-.43-1.188c-.277-.301-.637-.451-1.077-.451s-.804.15-1.089.451c-.286.293-.43.689-.43 1.188s.144.898.43 1.199c.286.293.649.44 1.089.44zm0 1.407c-.624 0-1.185-.128-1.683-.385a2.952 2.952 0 0 1-1.156-1.089 3.003 3.003 0 0 1-.418-1.573 3 3 0 0 1 .418-1.573 2.876 2.876 0 0 1 1.156-1.078 3.537 3.537 0 0 1 1.683-.396c.623 0 1.181.132 1.672.396.491.256.876.616 1.155 1.078.278.462.418.986.418 1.573 0 .586-.14 1.111-.418 1.573a2.956 2.956 0 0 1-1.155 1.089c-.491.257-1.049.385-1.672.385zm-4.569-7.788v7.7h-1.782v-3.157h-3.498v3.157h-1.782v-7.7h1.782v3.036h3.498v-3.036h1.782z"/></svg>