<svg xmlns="http://www.w3.org/2000/svg" width="99.323" height="47.76" viewBox="0 0 99.323 47.76"><path fill="#FF7F00" d="M99.323 0H20C8.954 0 0 8.954 0 20v27.76h45.618C85.38 47.76 97.003 9.714 99.323 0z"/><path fill="#FFF" d="M31.392 19.374c.279.462.664.825 1.155 1.089.499.256 1.06.385 1.683.385s1.181-.128 1.672-.385a2.956 2.956 0 0 0 1.155-1.089c.279-.462.418-.986.418-1.573s-.139-1.111-.418-1.573a2.867 2.867 0 0 0-1.155-1.078c-.491-.264-1.049-.396-1.672-.396-.624 0-1.185.132-1.683.396a2.873 2.873 0 0 0-1.155 1.078c-.278.462-.418.986-.418 1.573s.139 1.111.418 1.573zm1.749-2.761c.286-.301.649-.451 1.089-.451s.799.15 1.078.451c.286.293.429.689.429 1.188s-.143.898-.429 1.199c-.278.293-.638.44-1.078.44s-.803-.147-1.089-.44c-.286-.301-.429-.701-.429-1.199s.143-.895.429-1.188zM48.96 28.757c-.411.315-.616.748-.616 1.298 0 .345.088.653.264.924.176.271.429.484.759.638.337.154.733.231 1.188.231.88 0 1.481-.275 1.804-.825v.737h1.606v-3.377c0-.88-.246-1.537-.737-1.969-.491-.44-1.195-.66-2.112-.66-.477 0-.942.062-1.397.187a3.735 3.735 0 0 0-1.155.528l.616 1.199c.213-.169.469-.301.77-.396.308-.103.62-.154.935-.154.455 0 .795.103 1.023.308.228.198.341.484.341.858h-1.364c-.865 0-1.507.157-1.925.473zm3.289.528v.605a1.134 1.134 0 0 1-.484.605 1.527 1.527 0 0 1-.781.198c-.301 0-.539-.063-.715-.187a.638.638 0 0 1-.253-.528c0-.462.352-.693 1.056-.693h1.177zm-25.4-8.525h1.759v-6.248h2.464V13.06h-6.676v1.452h2.453zm29.872 11l1.254-2.244h.825v2.244h1.694v-2.244h.825l1.254 2.244h2.035l-1.87-3.058 1.727-2.86H62.65l-1.32 2.299h-.836v-2.299H58.8v2.299h-.847l-1.309-2.299h-1.815l1.727 2.86-1.859 3.058zm-13.897-11h1.716v-5.918h-5.885v5.918h1.705v-4.51h2.464zm-23.999 11h1.705v-4.51h2.464v4.51h1.716v-5.918h-5.885zm27.317 1.276h1.595v-2.684h-.847v-4.51h-5.159l-.077 2.046c-.037.785-.125 1.39-.264 1.815-.139.425-.392.642-.759.649h-.242v2.684h1.595V31.76h4.158v1.276zm-.968-2.684h-2.497c.191-.198.319-.487.385-.869.073-.381.121-.873.143-1.474l.033-.759h1.936v3.102zm-6.737-4.202c-.491-.264-1.049-.396-1.672-.396-.624 0-1.185.132-1.683.396a2.873 2.873 0 0 0-1.155 1.078c-.278.462-.418.986-.418 1.573s.14 1.111.418 1.573c.279.462.664.825 1.155 1.089.499.256 1.06.385 1.683.385s1.181-.128 1.672-.385a2.956 2.956 0 0 0 1.155-1.089c.279-.462.418-.986.418-1.573s-.139-1.111-.418-1.573a2.873 2.873 0 0 0-1.155-1.078zM37.843 30c-.278.293-.638.44-1.078.44s-.803-.147-1.089-.44c-.286-.301-.429-.701-.429-1.199s.143-.895.429-1.188c.286-.301.649-.451 1.089-.451s.799.15 1.078.451c.286.293.429.689.429 1.188s-.143.898-.429 1.199zm-6.505-3.861a2.958 2.958 0 0 0-1.496-.385c-.814 0-1.434.256-1.859.77v-.682h-1.639v8.052h1.716v-2.761c.433.477 1.027.715 1.782.715.55 0 1.049-.125 1.496-.374.455-.256.81-.612 1.067-1.067.257-.462.385-.997.385-1.606s-.128-1.14-.385-1.595a2.666 2.666 0 0 0-1.067-1.067zM30.623 30c-.278.293-.638.44-1.078.44s-.803-.147-1.089-.44c-.278-.301-.418-.701-.418-1.199s.14-.895.418-1.188c.286-.301.649-.451 1.089-.451s.799.15 1.078.451c.286.293.429.689.429 1.188s-.143.898-.429 1.199z"/></svg>