<svg width="43" height="15" viewBox="0 0 43 15" fill="none" xmlns="http://www.w3.org/2000/svg">
<path d="M1.3437 2.61156H41.6556C42.3974 2.61156 42.9993 2.2233 42.9993 1.74499C42.9993 1.26661 42.3973 0.878418 41.6556 0.878418H1.3437C0.601927 0.878418 0 1.26668 0 1.74499C0 2.2233 0.602039 2.61156 1.3437 2.61156Z" fill="white"/>
<path d="M41.6556 6.94434H1.3437C0.601927 6.94434 0 7.3326 0 7.81091C0 8.28921 0.602039 8.67748 1.3437 8.67748H41.6556C42.3974 8.67748 42.9993 8.28921 42.9993 7.81091C42.9993 7.3326 42.3974 6.94434 41.6556 6.94434Z" fill="white"/>
<path d="M41.6558 13.0104H14.7812C14.0394 13.0104 13.4375 13.3986 13.4375 13.8769C13.4375 14.3553 14.0395 14.7435 14.7812 14.7435H41.6558C42.3976 14.7435 42.9995 14.3553 42.9995 13.8769C42.9996 13.3986 42.3976 13.0104 41.6558 13.0104Z" fill="white"/>
</svg>
