<?xml version="1.0" encoding="utf-8"?>
<!-- Generator: Adobe Illustrator 14.0.0, SVG Export Plug-In . SVG Version: 6.00 Build 43363)  -->
<!DOCTYPE svg PUBLIC "-//W3C//DTD SVG 1.1//EN" "http://www.w3.org/Graphics/SVG/1.1/DTD/svg11.dtd">
<svg version="1.1" id="Layer_1" xmlns="http://www.w3.org/2000/svg" xmlns:xlink="http://www.w3.org/1999/xlink" x="0px" y="0px"
	 width="35px" height="35px" viewBox="0 0 35 35" enable-background="new 0 0 35 35" xml:space="preserve">
<path d="M20.85,17.5c0,1.85-1.5,3.35-3.35,3.35c-1.85,0-3.35-1.5-3.35-3.35c0-1.85,1.5-3.35,3.35-3.35
	C19.35,14.15,20.85,15.65,20.85,17.5z"/>
<path d="M25.334,11.573c-0.162-0.436-0.418-0.831-0.752-1.155c-0.324-0.333-0.719-0.59-1.156-0.751
	c-0.354-0.138-0.885-0.301-1.865-0.346c-1.06-0.048-1.377-0.059-4.061-0.059s-3.001,0.01-4.061,0.059
	c-0.98,0.045-1.512,0.208-1.866,0.346c-0.437,0.161-0.832,0.418-1.156,0.751c-0.333,0.324-0.59,0.719-0.752,1.155
	c-0.137,0.354-0.301,0.887-0.346,1.866c-0.048,1.06-0.059,1.377-0.059,4.061c0,2.684,0.01,3.001,0.059,4.061
	c0.044,0.98,0.208,1.512,0.346,1.866c0.162,0.437,0.418,0.831,0.752,1.155c0.324,0.334,0.719,0.591,1.155,0.752
	c0.354,0.138,0.886,0.301,1.866,0.346c1.06,0.049,1.377,0.059,4.06,0.059c2.684,0,3.001-0.01,4.061-0.059
	c0.979-0.045,1.512-0.208,1.865-0.346c0.877-0.338,1.57-1.031,1.908-1.907c0.137-0.354,0.301-0.886,0.346-1.866
	c0.049-1.06,0.059-1.377,0.059-4.061c0-2.683-0.01-3.001-0.059-4.061C25.635,12.46,25.471,11.928,25.334,11.573z M17.5,22.66
	c-2.85,0-5.16-2.311-5.16-5.16c0-2.85,2.31-5.16,5.16-5.16c2.85,0,5.16,2.31,5.16,5.16C22.66,20.35,20.35,22.66,17.5,22.66z
	 M22.863,13.342c-0.665,0-1.205-0.54-1.205-1.206s0.54-1.206,1.205-1.206c0.666,0,1.207,0.54,1.207,1.206
	S23.529,13.342,22.863,13.342z"/>
<path d="M17.5,0C7.836,0,0,7.836,0,17.5C0,27.164,7.836,35,17.5,35C27.164,35,35,27.164,35,17.5C35,7.836,27.164,0,17.5,0z
	 M27.488,21.643c-0.049,1.07-0.219,1.801-0.467,2.439c-0.522,1.35-1.59,2.417-2.939,2.939c-0.639,0.248-1.369,0.418-2.439,0.467
	s-1.413,0.061-4.142,0.061c-2.729,0-3.072-0.012-4.144-0.061c-1.069-0.049-1.8-0.219-2.439-0.467
	c-0.671-0.253-1.278-0.648-1.78-1.16c-0.511-0.501-0.907-1.108-1.159-1.779c-0.248-0.639-0.418-1.369-0.467-2.439
	c-0.049-1.071-0.061-1.414-0.061-4.143c0-2.729,0.012-3.071,0.061-4.143c0.049-1.07,0.218-1.8,0.467-2.439
	c0.252-0.671,0.648-1.278,1.16-1.78c0.501-0.512,1.109-0.907,1.779-1.159c0.64-0.249,1.37-0.418,2.439-0.467
	c1.072-0.049,1.414-0.061,4.143-0.061c2.729,0,3.071,0.012,4.143,0.061c1.07,0.048,1.801,0.218,2.439,0.466
	c0.671,0.252,1.278,0.648,1.78,1.16c0.511,0.502,0.907,1.109,1.159,1.78c0.248,0.639,0.418,1.369,0.467,2.439
	c0.049,1.072,0.061,1.414,0.061,4.143C27.549,20.229,27.537,20.571,27.488,21.643z"/>
</svg>
