<svg width="35" height="35" viewBox="0 0 35 35" fill="none" xmlns="http://www.w3.org/2000/svg">
<path d="M17.4996 0C7.83495 0 0 7.83518 0 17.4998C0 27.1642 7.83495 35 17.4996 35C27.1642 35 34.9998 27.1642 34.9998 17.4998C34.9998 7.83518 27.1642 0 17.4996 0ZM17.4999 6.14676L27.8557 12.6043H7.14416L17.4999 6.14676ZM27.9848 22.9162H27.9837C27.9837 23.952 27.1443 24.7913 26.1086 24.7913H8.89126C7.85548 24.7913 7.01617 23.9519 7.01617 22.9162V13.0152C7.01617 12.9057 7.02737 12.7992 7.04557 12.6945L16.9399 18.8643C16.9521 18.8718 16.965 18.877 16.9775 18.884C16.9906 18.8912 17.0039 18.8982 17.0172 18.9049C17.0871 18.9409 17.159 18.97 17.2327 18.989C17.2402 18.9911 17.2478 18.992 17.2554 18.9938C17.3361 19.0128 17.4179 19.0247 17.4996 19.0247H17.5002C17.5008 19.0247 17.5013 19.0247 17.5013 19.0247C17.583 19.0247 17.6648 19.0131 17.7455 18.9938C17.7531 18.9919 17.7607 18.9911 17.7683 18.989C17.8418 18.97 17.9135 18.9409 17.9838 18.9049C17.9971 18.8982 18.0104 18.8912 18.0234 18.884C18.0358 18.877 18.0489 18.8718 18.061 18.8643L27.9554 12.6945C27.9736 12.7992 27.9848 12.9054 27.9848 13.0152V22.9162Z" fill="white"/>
</svg>
