<svg width="15" height="11" viewBox="0 0 15 11" fill="none" xmlns="http://www.w3.org/2000/svg">
<path d="M4.89917 10.8346C5.10353 11.0551 5.44363 11.0551 5.65513 10.8346C5.85948 10.6214 5.85948 10.2667 5.65513 10.0541C4.2149 8.55204 5.27948 6.05641 7.36045 6.05641L14.4708 6.05641C14.7656 6.05591 15 5.81149 15 5.50397C15 5.19646 14.7656 4.94409 14.4708 4.94409L7.35508 4.94409C5.27776 4.94409 4.21603 2.45193 5.65513 0.953842C5.85948 0.733266 5.85948 0.37806 5.65513 0.165431C5.44363 -0.0551451 5.10305 -0.0551452 4.89918 0.165431L0.158622 5.10952C-0.0528731 5.32264 -0.0528731 5.67735 0.158622 5.88998L4.89917 10.8346Z" fill="white"/>
</svg>
