<svg width="15" height="11" viewBox="0 0 15 11" fill="none" xmlns="http://www.w3.org/2000/svg">
<path d="M10.1008 0.165432C9.89647 -0.0551441 9.55637 -0.0551441 9.34487 0.165432C9.14052 0.378557 9.14052 0.733267 9.34487 0.945895C10.7851 2.44796 9.72052 4.94359 7.63955 4.94359H0.529216C0.23436 4.94409 0 5.18851 0 5.49603C0 5.80354 0.23436 6.05591 0.529216 6.05591H7.64492C9.72225 6.05591 10.784 8.54807 9.34487 10.0462C9.14052 10.2667 9.14052 10.6219 9.34487 10.8346C9.55637 11.0551 9.89695 11.0551 10.1008 10.8346L14.8414 5.89048C15.0529 5.67736 15.0529 5.32264 14.8414 5.11002L10.1008 0.165432Z" fill="white"/>
</svg>
