<svg width="35" height="35" viewBox="0 0 35 35" fill="none" xmlns="http://www.w3.org/2000/svg">
<path d="M17.5 0C7.83562 0 0 7.83562 0 17.5C0 27.1666 7.83562 35 17.5 35C27.1644 35 35 27.1666 35 17.5C35 7.83562 27.1644 0 17.5 0ZM19.3069 21.3959C18.2219 21.3959 17.2003 20.8108 16.8492 20.1425C16.8492 20.1425 16.2652 22.458 16.1427 22.9031C15.7073 24.4825 14.4266 26.0662 14.3281 26.1942C14.2592 26.2839 14.105 26.2566 14.0886 26.1352C14.0612 25.9317 13.7342 23.9411 14.1181 22.3169C14.3117 21.5009 15.412 16.8383 15.412 16.8383C15.412 16.8383 15.0905 16.1973 15.0905 15.2491C15.0905 13.7594 15.9545 12.647 17.0297 12.647C17.9441 12.647 18.3859 13.3328 18.3859 14.1553C18.3859 15.0752 17.8008 16.4511 17.4978 17.7242C17.2463 18.7917 18.0316 19.6612 19.0837 19.6612C20.9858 19.6612 22.2698 17.2156 22.2698 14.315C22.2698 12.1122 20.7878 10.4639 18.0884 10.4639C15.0402 10.4639 13.1403 12.7389 13.1403 15.2786C13.1403 16.1547 13.3984 16.7716 13.8031 17.2484C13.9891 17.4683 14.0142 17.5591 13.9475 17.8106C13.8983 17.9944 13.7889 18.4406 13.7419 18.6156C13.6752 18.8705 13.4684 18.9602 13.2388 18.8661C11.8344 18.2952 11.1803 16.7552 11.1803 15.0248C11.1803 12.1713 13.5877 8.74672 18.3641 8.74672C22.202 8.74672 24.7264 11.5237 24.7264 14.5064C24.7308 18.4505 22.5389 21.3959 19.3069 21.3959Z" fill="white"/>
</svg>
