<svg width="68" height="67" viewBox="0 0 68 67" fill="none" xmlns="http://www.w3.org/2000/svg">
<path d="M33.9684 0.58374C15.3185 0.58374 0.19931 15.4471 0.19931 33.7821C0.19931 52.117 15.3185 66.9804 33.9684 66.9804C52.6184 66.9804 67.7376 52.117 67.7376 33.7821C67.7376 15.4471 52.6184 0.58374 33.9684 0.58374ZM45.6399 35.5418L28.7553 45.9163C28.4137 46.126 28.0252 46.2314 27.6367 46.2314C27.2848 46.2314 26.9323 46.1453 26.6134 45.971C25.9425 45.6053 25.5262 44.9113 25.5262 44.1565V23.4076C25.5262 22.6528 25.9425 21.9588 26.6134 21.5931C27.2843 21.2253 28.1046 21.2476 28.7553 21.6478L45.6399 32.0223C46.2567 32.4022 46.6319 33.0669 46.6319 33.7821C46.6319 34.4972 46.2567 35.162 45.6399 35.5418Z" fill="white"/>
</svg>
