<?xml version="1.0" encoding="utf-8"?>
<!-- Generator: Adobe Illustrator 14.0.0, SVG Export Plug-In . SVG Version: 6.00 Build 43363)  -->
<!DOCTYPE svg PUBLIC "-//W3C//DTD SVG 1.1//EN" "http://www.w3.org/Graphics/SVG/1.1/DTD/svg11.dtd">
<svg version="1.1" id="Layer_1" xmlns="http://www.w3.org/2000/svg" xmlns:xlink="http://www.w3.org/1999/xlink" x="0px" y="0px"
	 width="26px" height="24px" viewBox="0 0 26 24" enable-background="new 0 0 26 24" xml:space="preserve">
<g>
	<path fill="none" d="M13,1.618l2.443,7.519l0.111,0.346h0.363h7.906l-6.396,4.647l-0.294,0.214l0.112,0.346l2.443,7.519
		l-6.396-4.647L13,17.348l-0.294,0.213L6.31,22.208l2.443-7.519l0.112-0.346L8.571,14.13L2.175,9.483h7.906h0.363l0.112-0.346
		L13,1.618z"/>
	<path d="M20.642,23.518L13,17.965l0,0.001l-7.641,5.552l2.918-8.983L0.636,8.983h9.445L13,0l2.919,8.982h9.444l-7.641,5.552
		L20.642,23.518L20.642,23.518z M3.714,9.983l5.739,4.17l-2.192,6.745L13,16.73l5.739,4.168l-2.192-6.745l5.738-4.17H15.19L13,3.236
		l-2.191,6.747H3.714L3.714,9.983z"/>
</g>
</svg>
