<svg width="35" height="35" viewBox="0 0 35 35" fill="none" xmlns="http://www.w3.org/2000/svg">
<path d="M29.87 5.12815C23.0323 -1.70938 11.9539 -1.70938 5.12354 5.12815C-1.45222 11.7038 -1.69954 22.222 4.38886 29.0959L4.57071 29.2413C3.90877 30.667 2.77402 32.4273 0.970044 33.3148C0.37357 33.6057 0.511778 34.4931 1.16644 34.595C3.13772 34.9005 5.96734 34.5586 8.60783 32.5655L8.6442 32.5946C15.3509 36.5371 24.1234 35.6352 29.8845 29.8742C36.7076 23.0439 36.7076 11.9584 29.87 5.12815ZM23.2651 24.9861C22.8796 25.3789 22.4722 25.7426 22.1085 26.1499C21.5775 26.7464 20.9083 26.9355 20.1518 26.8919C19.0461 26.8337 18.0205 26.4627 17.0385 25.9826C14.849 24.9206 12.9795 23.444 11.4156 21.5819C10.259 20.2071 9.30614 18.7086 8.67329 17.0138C8.36778 16.1918 8.14956 15.3553 8.21503 14.4679C8.25867 13.9224 8.46234 13.4568 8.86242 13.0713C9.29886 12.6567 9.70621 12.2275 10.1354 11.8056C10.6955 11.2528 11.3938 11.2601 11.9539 11.8056C12.3031 12.1475 12.6377 12.4894 12.9795 12.8313C13.3142 13.1659 13.6488 13.4932 13.9761 13.8278C14.558 14.417 14.558 15.1008 13.9761 15.6899C13.5615 16.1118 13.1469 16.5337 12.7177 16.9411C12.6086 17.0502 12.594 17.1375 12.6522 17.2757C12.9286 17.9449 13.336 18.5413 13.787 19.0942C14.6962 20.2143 15.7291 21.2109 16.9657 21.9819C17.2276 22.1492 17.5186 22.2656 17.795 22.4184C17.9332 22.4984 18.035 22.4693 18.1441 22.3529C18.5588 21.9237 18.9879 21.5018 19.4098 21.08C19.9699 20.5271 20.6682 20.5271 21.2211 21.08C21.9048 21.7564 22.5813 22.4329 23.2578 23.1167C23.8397 23.7131 23.8397 24.4114 23.2651 24.9861ZM16.813 13.6823L17.0312 12.1257C18.5369 12.3366 19.9045 13.0204 20.981 14.0969C22.0067 15.1226 22.6759 16.4101 22.9159 17.8285L21.3666 18.0976C21.1774 16.9993 20.661 16.0027 19.8681 15.2099C19.0316 14.3734 17.9768 13.8424 16.813 13.6823ZM25.4473 17.8285C25.0982 15.7918 24.138 13.9442 22.6759 12.4749C21.1338 10.9328 19.1771 9.95806 17.0167 9.65255L17.2349 8.09592C19.7299 8.44507 21.9994 9.57254 23.7816 11.3619C25.4764 13.0568 26.5893 15.2026 26.9967 17.5594L25.4473 17.8285Z" fill="white"/>
</svg>
