<?xml version="1.0" encoding="utf-8"?>
<!-- Generator: Adobe Illustrator 14.0.0, SVG Export Plug-In . SVG Version: 6.00 Build 43363)  -->
<!DOCTYPE svg PUBLIC "-//W3C//DTD SVG 1.1//EN" "http://www.w3.org/Graphics/SVG/1.1/DTD/svg11.dtd">
<svg version="1.1" xmlns="http://www.w3.org/2000/svg" xmlns:xlink="http://www.w3.org/1999/xlink" x="0px" y="0px" width="35px"
	 height="35px" viewBox="0 0 35 35" enable-background="new 0 0 35 35" xml:space="preserve">
<g id="Layer_2">
</g>
<g id="Layer_1">
	<path d="M15.32,20.779l5.692-3.279l-5.692-3.279V20.779z"/>
	<path d="M17.5,0C7.836,0,0,7.836,0,17.5C0,27.164,7.836,35,17.5,35C27.164,35,35,27.164,35,17.5C35,7.836,27.164,0,17.5,0z
		 M28.435,17.518c0,0,0,3.548-0.45,5.26c-0.252,0.937-0.99,1.675-1.928,1.928c-1.711,0.45-8.557,0.45-8.557,0.45
		s-6.828,0-8.557-0.469c-0.937-0.252-1.675-0.99-1.928-1.928c-0.45-1.693-0.45-5.26-0.45-5.26s0-3.549,0.45-5.26
		c0.252-0.937,1.009-1.693,1.928-1.946c1.711-0.45,8.557-0.45,8.557-0.45s6.846,0,8.557,0.468c0.938,0.252,1.676,0.991,1.928,1.928
		C28.453,13.951,28.435,17.518,28.435,17.518z"/>
</g>
</svg>
