<svg width="145" height="101" viewBox="0 0 145 101" fill="none" xmlns="http://www.w3.org/2000/svg"><path d="M43.188 100.625l.001-1-.002 1zm42.374-50.438l-1-.001 1 .002zm-84.75 0l1 .004-1-.004zm27 0l-1-.004 1 .005zm30.75 0l1-.002-1 .002zm-15.376 51.438c13.31.024 24.187-4.742 31.725-13.637 7.52-8.874 11.628-21.75 11.651-37.799l-2-.003c-.023 15.731-4.048 28.098-11.177 36.51-7.11 8.39-17.398 12.952-30.196 12.929l-.003 2zm43.377-51.436c.023-15.96-4.085-28.596-11.625-37.256C67.383 4.256 56.484-.313 43.188-.313v2c12.813 0 23.125 4.385 30.241 12.56 7.132 8.191 11.157 20.305 11.133 35.939l2 .003zM43.187-.313C29.87-.313 19.005 4.231 11.473 12.9 3.956 21.547-.14 34.182-.188 50.184l2 .007c.047-15.686 4.06-27.8 11.17-35.98C20.073 6.05 30.348 1.687 43.187 1.687v-2zM-.187 50.185C-.235 66.168 3.86 79.02 11.393 87.9c7.55 8.9 18.46 13.7 31.793 13.724l.003-2c-12.823-.023-23.147-4.62-30.27-13.018C5.779 78.19 1.766 65.848 1.812 50.191l-2-.007zm43.374 28.252c-4.095 0-7.652-2.027-10.228-6.544-2.608-4.57-4.193-11.682-4.147-21.7l-2-.01c-.047 10.184 1.555 17.697 4.41 22.701 2.884 5.058 7.06 7.553 11.965 7.553v-2zM28.813 50.192c.046-9.788 1.63-16.71 4.212-21.152 2.547-4.384 6.056-6.352 10.163-6.352v-2c-4.894 0-9.026 2.414-11.892 7.347-2.833 4.874-4.436 12.201-4.483 22.148l2 .01zm14.375-27.505c4.107 0 7.627 1.97 10.18 6.353 2.587 4.441 4.171 11.364 4.194 21.15l2-.005c-.023-9.948-1.626-17.276-4.465-22.151-2.873-4.933-7.017-7.346-11.91-7.346v2zM57.562 50.19C57.587 60.21 56 67.323 53.4 71.894c-2.571 4.517-6.117 6.543-10.212 6.543v2c4.906 0 9.071-2.496 11.95-7.554 2.847-5.003 4.45-12.515 4.425-22.698l-2 .005zM144.86 2h1V1h-1v1zm-24 0V1h-.281l-.24.147.521.853zM97.234 16.438l-.521-.854-.479.293v.56h1zm0 22.125h-1v1.763l1.514-.905-.514-.858zm21-12.563v-1h-.276l-.237.142.513.858zm.563 0h1v-1h-1v1zm0 72h-1v1h1v-1zm26.062 0v1h1v-1h-1zm0-97h-24v2h24V1zm-24.521.147L96.713 15.584l1.043 1.707L121.38 2.853l-1.043-1.706zm-24.104 15.29v22.125h2V16.439h-2zm1.514 22.984l21-12.563-1.027-1.716-21 12.562 1.027 1.717zM118.234 27h.563v-2h-.563v2zm-.437-1v72h2V26h-2zm1 73h26.062v-2h-26.062v2zm27.062-1V2h-2v96h2z" fill="#fff"/></svg>