<svg width="120" height="85" viewBox="0 0 120 85" fill="none" xmlns="http://www.w3.org/2000/svg"><path d="M36.156 84.188l-.003 1h.003v-1zm-18.828-5.04l-.533.846.533-.846zM5.102 64.734l-.91.416.91-.416zM.844 42.156l1 .003-1-.003zM5.14 19.734l-.907-.422-.001.003.908.42zM17.328 5.711l-.518-.855h-.002l.52.855zm37.656.039l-.52.853.002.002.518-.855zm12.227 14.023l.906-.422-.906.422zm4.258 22.383l-1-.003v.003h1zm-4.297 22.657l.91.415-.91-.415zM54.945 79.227l.533.846-.533-.846zm-9.57-18.555l-.852-.524v.001l.852.523zm3.594-18.516l1-.003-1 .003zM45.336 24.11l-.849.53.003.003.846-.533zm-18.36 0l-.848-.529.849.53zm-3.632 18.047l-1-.006v.003l1 .003zm3.554 18.516l-.854.52.005.007.85-.527zm9.262 22.516c-7.11-.026-13.195-1.668-18.298-4.885l-1.067 1.691c5.47 3.449 11.935 5.167 19.358 5.194l.007-2zm-18.298-4.885c-5.105-3.22-9.058-7.866-11.85-13.984l-1.82.83c2.937 6.435 7.135 11.397 12.603 14.845l1.066-1.691zM6.011 64.319C3.22 58.205 1.817 50.83 1.843 42.16l-2-.006c-.027 8.883 1.41 16.559 4.348 22.997l1.82-.83zM1.843 42.16c.025-8.7 1.441-16.023 4.204-22.005l-1.815-.839C1.319 25.625-.13 33.25-.157 42.153l2 .006zm4.203-22.002c2.79-5.986 6.726-10.502 11.801-13.592l-1.04-1.708c-5.446 3.316-9.635 8.149-12.574 14.455l1.813.845zm11.8-13.59c5.104-3.094 11.194-4.66 18.31-4.66v-2c-7.417 0-13.879 1.635-19.347 4.949l1.036 1.71zm18.31-4.66c7.113 0 13.202 1.579 18.306 4.696l1.043-1.706c-5.47-3.341-11.932-4.99-19.35-4.99v2zm18.31 4.698c5.1 3.09 9.048 7.606 11.838 13.59l1.812-.844c-2.94-6.307-7.142-11.14-12.614-14.456l-1.037 1.71zm11.838 13.59c2.787 5.98 4.19 13.288 4.164 21.958l2 .006c.026-8.881-1.41-16.496-4.352-22.808l-1.812.845zm4.164 21.961c0 8.724-1.416 16.127-4.207 22.241l1.82.83c2.938-6.437 4.387-14.138 4.387-23.07h-2zm-4.207 22.241c-2.792 6.118-6.745 10.765-11.85 13.984l1.067 1.691c5.468-3.447 9.666-8.41 12.603-14.844l-1.82-.83zM54.413 78.38c-5.075 3.191-11.147 4.808-18.257 4.808v2c7.422 0 13.876-1.691 19.322-5.115l-1.065-1.693zM36.156 67.531c4.18 0 7.54-2.21 10.071-6.336l-1.704-1.046c-2.261 3.686-5.046 5.382-8.367 5.382v2zm10.07-6.335c2.571-4.174 3.769-10.576 3.743-19.043l-2 .006c.026 8.357-1.173 14.298-3.446 17.989l1.703 1.048zm3.743-19.043c-.026-8.283-1.238-14.532-3.787-18.577l-1.692 1.066c2.243 3.56 3.453 9.342 3.479 17.517l2-.006zM46.185 23.58c-2.511-4.028-5.862-6.174-10.029-6.174v2c3.333 0 6.103 1.657 8.331 5.232l1.698-1.058zm-10.029-6.174c-4.167 0-7.517 2.146-10.028 6.174l1.697 1.058c2.229-3.575 4.998-5.232 8.331-5.232v-2zM26.128 23.58c-2.52 4.043-3.732 10.288-3.784 18.57l2 .013c.051-8.177 1.261-13.963 3.481-17.525l-1.697-1.058zm-3.784 18.573c-.027 8.466 1.158 14.866 3.7 19.04l1.708-1.041c-2.249-3.692-3.434-9.635-3.408-17.993l-2-.006zM26.048 61.2c2.557 4.123 5.93 6.332 10.108 6.332v-2c-3.322 0-6.12-1.697-8.408-5.386l-1.7 1.054zM119.79 2h1V1h-1v1zm0 80v1h1v-1h-1zm-21.72 0h-1v1h1v-1zm0-54.844h1v-1h-1v1zm-.78 0v-1h-.508l-.3.41.807.59zm-5.548 4.063l-.43-.903-.002.001.432.902zm-10.39 1.875h-1v1h1v-1zm0-17.032v-1h-1v1h1zm8.242-1.914l.454.891.008-.004-.462-.887zm6.015-5.156l-.811-.584-.005.007.816.577zM97.914 2V1h-1v1h1zm20.875 0v80h2V2h-2zm1 79H98.07v2h21.719v-2zM99.07 82V27.156h-2V82h2zm-1-55.844h-.78v2h.78v-2zm-1.588.41c-.927 1.266-2.607 2.532-5.169 3.75l.858 1.806c2.698-1.282 4.717-2.725 5.925-4.375l-1.614-1.181zm-5.172 3.751c-2.42 1.161-5.717 1.777-9.958 1.777v2c4.404 0 8.033-.635 10.823-1.974l-.865-1.803zm-8.958 2.777V16.062h-2v17.032h2zm-1-16.032c3.141 0 6.046-.67 8.696-2.023l-.909-1.781c-2.35 1.2-4.94 1.805-7.787 1.805v2zm8.704-2.027c2.63-1.37 4.76-3.19 6.37-5.465l-1.633-1.155c-1.412 1.995-3.291 3.612-5.661 4.847l.924 1.773zm6.365-5.459C98.075 7.278 98.914 4.745 98.914 2h-2c0 2.307-.697 4.435-2.116 6.408l1.623 1.168zM97.914 3h21.875V1H97.914v2z" fill="#fff"/></svg>