<svg width="172" height="101" viewBox="0 0 172 101" fill="none" xmlns="http://www.w3.org/2000/svg"><path d="M43.188 100.625l.001-1-.002 1zm42.374-50.438l-1-.001 1 .002zm-84.75 0l1 .004-1-.004zm27 0l-1-.004 1 .005zm30.75 0l1-.002-1 .002zm-15.376 51.438c13.31.024 24.187-4.742 31.725-13.637 7.52-8.874 11.628-21.75 11.651-37.799l-2-.003c-.023 15.731-4.048 28.098-11.177 36.51-7.11 8.39-17.398 12.952-30.196 12.929l-.003 2zm43.377-51.436c.023-15.96-4.085-28.596-11.625-37.256C67.383 4.256 56.484-.313 43.188-.313v2c12.813 0 23.125 4.385 30.241 12.56 7.132 8.191 11.157 20.305 11.133 35.939l2 .003zM43.187-.313C29.87-.313 19.005 4.231 11.473 12.9 3.956 21.547-.14 34.182-.188 50.184l2 .007c.047-15.686 4.06-27.8 11.17-35.98C20.073 6.05 30.348 1.687 43.187 1.687v-2zM-.187 50.185C-.235 66.168 3.86 79.02 11.393 87.9c7.55 8.9 18.46 13.7 31.793 13.724l.003-2c-12.823-.023-23.147-4.62-30.27-13.018C5.779 78.19 1.766 65.848 1.812 50.191l-2-.007zm43.374 28.252c-4.095 0-7.652-2.027-10.228-6.544-2.608-4.57-4.193-11.682-4.147-21.7l-2-.01c-.047 10.184 1.555 17.697 4.41 22.701 2.884 5.058 7.06 7.553 11.965 7.553v-2zM28.813 50.192c.046-9.788 1.63-16.71 4.212-21.152 2.547-4.384 6.056-6.352 10.163-6.352v-2c-4.894 0-9.026 2.414-11.892 7.347-2.833 4.874-4.436 12.201-4.483 22.148l2 .01zm14.375-27.505c4.107 0 7.627 1.97 10.18 6.353 2.587 4.441 4.171 11.364 4.194 21.15l2-.005c-.023-9.948-1.626-17.276-4.465-22.151-2.873-4.933-7.017-7.346-11.91-7.346v2zM57.562 50.19C57.587 60.21 56 67.323 53.4 71.894c-2.571 4.517-6.117 6.543-10.212 6.543v2c4.906 0 9.071-2.496 11.95-7.554 2.847-5.003 4.45-12.515 4.425-22.698l-2 .005zM97.797 98h-1v1h1v-1zm73.687 0v1h1v-1h-1zm0-20.813h1v-1h-1v1zm-37.5 0h-1v1h1v-1zm0-.562l-.64-.768-.36.3v.468h1zm9-7.5l-.64-.768.64.768zM95.922 33.312l-1 .003.002.998h.998v-1zm24.75 0v1h1.006l-.006-1.005-1 .005zm12.937 16.313l.638.77-.638-.77zM97.797 79.25l-.638-.77-.362.3v.47h1zm0 19.75h73.687v-2H97.797v2zm74.687-1V77.187h-2V98h2zm-1-21.813h-37.5v2h37.5v-2zm-36.5 1v-.562h-2v.563h2zm-.359.206l9-7.5-1.281-1.536-9 7.5 1.281 1.536zm8.999-7.5c21.905-18.246 27.829-27.978 27.829-39.58h-2c0 10.616-5.232 19.82-27.109 38.044l1.28 1.536zm27.829-39.58c0-9.254-3.803-16.951-10.593-22.313-6.767-5.343-16.427-8.313-28.094-8.313v2c11.348 0 20.532 2.89 26.855 7.883 6.3 4.975 9.832 12.09 9.832 20.742h2zM132.766-.314c-11.359 0-20.837 3.156-27.484 8.985-6.662 5.842-10.384 14.285-10.36 24.643l2-.005c-.023-9.845 3.497-17.714 9.679-23.134 6.196-5.434 15.164-8.489 26.165-8.489v-2zM95.922 34.313h24.75v-2h-24.75v2zm25.75-1.006c-.022-3.824 1.13-6.687 3.03-8.593 1.903-1.908 4.663-2.964 8.064-2.964v-2c-3.818 0-7.128 1.194-9.48 3.552-2.353 2.36-3.639 5.778-3.614 10.016l2-.011zm11.094-11.557c3.38 0 6.19 1.047 8.147 2.877 1.948 1.822 3.134 4.498 3.134 7.936h2c0-3.923-1.369-7.152-3.768-9.397-2.392-2.237-5.722-3.416-9.513-3.416v2zm11.281 10.813c0 6.273-3.961 10.403-11.075 16.292l1.275 1.54c7.042-5.83 11.8-10.512 11.8-17.833h-2zm-11.075 16.291L97.159 78.48l1.275 1.54 35.813-29.624-1.275-1.541zM96.797 79.25V98h2V79.25h-2z" fill="#fff"/></svg>