<svg width="176" height="101" viewBox="0 0 176 101" fill="none" xmlns="http://www.w3.org/2000/svg"><path d="M43.188 100.625l.001-1-.002 1zm42.374-50.438l-1-.001 1 .002zm-84.75 0l1 .004-1-.004zm27 0l-1-.004 1 .005zm30.75 0l1-.002-1 .002zm-15.376 51.438c13.31.024 24.187-4.742 31.725-13.637 7.52-8.874 11.628-21.75 11.651-37.799l-2-.003c-.023 15.731-4.048 28.098-11.177 36.51-7.11 8.39-17.398 12.952-30.196 12.929l-.003 2zm43.377-51.436c.023-15.96-4.085-28.596-11.625-37.256C67.383 4.256 56.484-.313 43.188-.313v2c12.813 0 23.125 4.385 30.241 12.56 7.132 8.191 11.157 20.305 11.133 35.939l2 .003zM43.187-.313C29.87-.313 19.005 4.231 11.473 12.9 3.956 21.547-.14 34.182-.188 50.184l2 .007c.047-15.686 4.06-27.8 11.17-35.98C20.073 6.05 30.348 1.687 43.187 1.687v-2zM-.187 50.185C-.235 66.168 3.86 79.02 11.393 87.9c7.55 8.9 18.46 13.7 31.793 13.724l.003-2c-12.823-.023-23.147-4.62-30.27-13.018C5.779 78.19 1.766 65.848 1.812 50.191l-2-.007zm43.374 28.252c-4.095 0-7.652-2.027-10.228-6.544-2.608-4.57-4.193-11.682-4.147-21.7l-2-.01c-.047 10.184 1.555 17.697 4.41 22.701 2.884 5.058 7.06 7.553 11.965 7.553v-2zM28.813 50.192c.046-9.788 1.63-16.71 4.212-21.152 2.547-4.384 6.056-6.352 10.163-6.352v-2c-4.894 0-9.026 2.414-11.892 7.347-2.833 4.874-4.436 12.201-4.483 22.148l2 .01zm14.375-27.505c4.107 0 7.627 1.97 10.18 6.353 2.587 4.441 4.171 11.364 4.194 21.15l2-.005c-.023-9.948-1.626-17.276-4.465-22.151-2.873-4.933-7.017-7.346-11.91-7.346v2zM57.562 50.19C57.587 60.21 56 67.323 53.4 71.894c-2.571 4.517-6.117 6.543-10.212 6.543v2c4.906 0 9.071-2.496 11.95-7.554 2.847-5.003 4.45-12.515 4.425-22.698l-2 .005zm117.672 20.248l-1-.008v.013l1-.005zm-23.25-21.75h-1v.896l.892.098.108-.995zm0-.75l-.106-.995-.894.095v.9h1zm19.688-19.313l-1-.006v.015l1-.009zm-73.5 2.063l-1-.006-.005 1.006h1.005v-1zm24.937 0v1h.984l.016-.984-1-.017zm23.438-.375l-1-.017v.033l1-.017zm-22.875 9.937v-1h-1v1h1zm0 18h-1v1h1v-1zm24 9.938l-1-.017v.032l1-.016zm-25.125.562l1-.017-.017-.983h-.983v1zm-26.25 0v-1h-1.005l.005 1.005 1-.005zm39 31.562c11.901 0 22.128-3.027 29.396-8.28 7.287-5.268 11.59-12.774 11.541-21.6l-2 .011c.045 8.096-3.878 15.027-10.712 19.967-6.853 4.953-16.642 7.903-28.225 7.903v1.999zm40.937-29.867c.049-6.122-1.983-11.413-6.094-15.381-4.095-3.953-10.164-6.51-18.047-7.37l-.217 1.988c7.585.827 13.189 3.262 16.875 6.82 3.67 3.544 5.528 8.285 5.483 13.928l2 .015zm-23.25-21.757v-.75h-2v.75h2zm-.894.244c11.796-1.257 20.681-8.925 20.582-20.316l-2 .018c.088 10.078-7.714 17.129-18.794 18.31l.212 1.988zm20.582-20.301c.098-16.954-15.61-28.944-37.188-28.944v2c20.985 0 35.277 11.542 35.188 26.932l2 .012zM135.484-.313c-22.091 0-38.214 12.679-38.312 30.995l2 .01c.09-16.84 14.904-29.005 36.312-29.005v-2zm-37.312 32h24.937v-2H98.172v2zm25.937-.983c.082-5.09 4.553-8.954 11.375-8.954v-2c-7.521 0-13.269 4.386-13.374 10.921l1.999.033zm11.375-8.954c3.083 0 5.627.935 7.373 2.446 1.735 1.5 2.732 3.61 2.69 6.1l2 .033c.052-3.087-1.202-5.76-3.381-7.646-2.168-1.876-5.202-2.933-8.682-2.933v2zm10.063 8.579c.041 2.556-1.121 4.75-3.213 6.335-2.11 1.598-5.188 2.586-8.912 2.586v2c4.057 0 7.589-1.075 10.119-2.992 2.549-1.93 4.058-4.706 4.006-7.962l-2 .033zm-12.125 8.921h-9.75v2h9.75v-2zm-10.75 1v18h2v-18h-2zm1 19h9.75v-2h-9.75v2zm9.75 0c4.068 0 7.44.996 9.752 2.61 2.293 1.6 3.539 3.79 3.498 6.311l2 .033c.053-3.292-1.608-6.07-4.354-7.985-2.727-1.903-6.527-2.969-10.896-2.969v2zm13.25 8.953c.042 2.665-1.06 4.91-2.99 6.51-1.944 1.61-4.775 2.6-8.198 2.6v2c3.796 0 7.106-1.098 9.474-3.06 2.383-1.976 3.766-4.793 3.714-8.081l-2 .031zm-11.188 9.11c-7.232 0-11.857-3.788-11.937-8.58l-2 .034c.107 6.365 6.17 10.546 13.937 10.546v-2zm-12.937-9.563h-26.25v2h26.25v-2zm-27.25 1.005c.098 18.665 16.95 31.557 40 31.557v-2c-22.419 0-37.91-12.42-38-29.567l-2 .01z" fill="#fff"/></svg>