<svg width="180" height="101" viewBox="0 0 180 101" fill="none" xmlns="http://www.w3.org/2000/svg"><path d="M43.188 100.625l.001-1-.002 1zm42.374-50.438l-1-.001 1 .002zm-84.75 0l1 .004-1-.004zm27 0l-1-.004 1 .005zm30.75 0l1-.002-1 .002zm-15.376 51.438c13.31.024 24.187-4.742 31.725-13.637 7.52-8.874 11.628-21.75 11.651-37.799l-2-.003c-.023 15.731-4.048 28.098-11.177 36.51-7.11 8.39-17.398 12.952-30.196 12.929l-.003 2zm43.377-51.436c.023-15.96-4.085-28.596-11.625-37.256C67.383 4.256 56.484-.313 43.188-.313v2c12.813 0 23.125 4.385 30.241 12.56 7.132 8.191 11.157 20.305 11.133 35.939l2 .003zM43.187-.313C29.87-.313 19.005 4.231 11.473 12.9 3.956 21.547-.14 34.182-.188 50.184l2 .007c.047-15.686 4.06-27.8 11.17-35.98C20.073 6.05 30.348 1.687 43.187 1.687v-2zM-.187 50.185C-.235 66.168 3.86 79.02 11.393 87.9c7.55 8.9 18.46 13.7 31.793 13.724l.003-2c-12.823-.023-23.147-4.62-30.27-13.018C5.779 78.19 1.766 65.848 1.812 50.191l-2-.007zm43.374 28.252c-4.095 0-7.652-2.027-10.228-6.544-2.608-4.57-4.193-11.682-4.147-21.7l-2-.01c-.047 10.184 1.555 17.697 4.41 22.701 2.884 5.058 7.06 7.553 11.965 7.553v-2zM28.813 50.192c.046-9.788 1.63-16.71 4.212-21.152 2.547-4.384 6.056-6.352 10.163-6.352v-2c-4.894 0-9.026 2.414-11.892 7.347-2.833 4.874-4.436 12.201-4.483 22.148l2 .01zm14.375-27.505c4.107 0 7.627 1.97 10.18 6.353 2.587 4.441 4.171 11.364 4.194 21.15l2-.005c-.023-9.948-1.626-17.276-4.465-22.151-2.873-4.933-7.017-7.346-11.91-7.346v2zM57.562 50.19C57.587 60.21 56 67.323 53.4 71.894c-2.571 4.517-6.117 6.543-10.212 6.543v2c4.906 0 9.071-2.496 11.95-7.554 2.847-5.003 4.45-12.515 4.425-22.698l-2 .005zM96.86 83h-1v1h1v-1zm46.688 0h1v-1h-1v1zm0 15h-1v1h1v-1zm24.937 0v1h1v-1h-1zm0-15v-1h-1v1h1zm11.063 0v1h1v-1h-1zm0-20.25h1v-1h-1v1zm-11.063 0h-1v1h1v-1zm0-60.75h1V1h-1v1zm-33 0V1h-.549l-.294.463.843.537zM96.859 62.75l-.843-.536-.157.245v.291h1zm47.25 0v1h1v-1h-1zm-21.562 0h-1v1h1v-1zm0-.75l-.846-.533-.154.244V62h1zm20.812-33v-1h-.551l-.294.466.845.534zm.75 0h1v-1h-1v1zm-47.25 55h46.688v-2H96.859v2zm45.688-1v15h2V83h-2zm1 16h24.937v-2h-24.937v2zm25.937-1V83h-2v15h2zm-1-14h11.063v-2h-11.063v2zm12.063-1V62.75h-2V83h2zm-1-21.25h-11.063v2h11.063v-2zm-10.063 1V2h-2v60.75h2zm-1-61.75h-33v2h33V1zm-33.843.463l-38.625 60.75 1.687 1.073 38.625-60.75-1.687-1.073zM95.859 62.75V83h2V62.75h-2zm48.25-1h-21.562v2h21.562v-2zm-20.562 1V62h-2v.75h2zm-.154-.217l20.812-33-1.691-1.067-20.813 33 1.692 1.067zM143.359 30h.75v-2h-.75v2zm-.25-1v33.75h2V29h-2z" fill="#fff"/></svg>