<svg width="160" height="90" viewBox="0 0 160 90" fill="none" xmlns="http://www.w3.org/2000/svg"><path d="M38.077 89.347l-.008 2h.008v-2zM17.879 83.94l-1.067 1.692 1.067-1.692zM4.763 68.479l-1.819.83 1.82-.83zM.196 44.259l2 .005-2-.006zm4.61-24.053l-1.813-.845-.003.006 1.815.839zM17.878 5.163l-1.036-1.71-.004.001 1.04 1.709zm40.395.042L57.232 6.91l.006.004 1.036-1.71zM71.39 20.248l1.813-.845-1.813.845zm4.567 24.01l-2-.005v.005h2zm-4.609 24.304l1.82.831-1.82-.83zM58.232 84.025l1.065 1.693.002-.001-1.067-1.692zM47.966 64.12l-1.703-1.05-.002.004 1.705 1.046zm3.855-19.862l2-.007-2 .006zm-3.897-19.36l-1.697 1.058.005.008 1.692-1.066zm-19.695 0l-1.697-1.058 1.698 1.06zm-3.897 19.36l-2-.013v.006l2 .006zm3.814 19.862l-1.708 1.04.004.007.004.007 1.7-1.054zm9.938 23.226c-7.481-.027-13.833-1.753-19.138-5.098l-2.134 3.384c6.037 3.806 13.15 5.684 21.257 5.714l.015-4zm-19.138-5.098c-5.308-3.346-9.434-8.184-12.363-14.6l-3.639 1.66c3.217 7.049 7.834 12.519 13.868 16.324l2.134-3.384zM6.583 67.65c-2.925-6.41-4.414-14.183-4.387-23.385l-4-.011c-.029 9.627 1.527 18 4.748 25.056l3.639-1.66zM2.196 44.263c.027-9.237 1.531-16.954 4.425-23.22L2.99 19.368c-3.196 6.92-4.765 15.239-4.794 24.886l4 .011zM6.618 21.05c2.924-6.273 7.03-10.97 12.301-14.18l-2.08-3.417C10.825 7.116 6.215 12.448 2.993 19.361l3.625 1.69zM18.916 6.873c5.307-3.216 11.667-4.864 19.16-4.864v-4c-8.094 0-15.198 1.787-21.233 5.443l2.073 3.421zm19.16-4.864c7.491 0 13.85 1.661 19.156 4.902l2.085-3.413c-6.036-3.687-13.143-5.49-21.24-5.49v4zm19.162 4.906c5.3 3.211 9.417 7.908 12.34 14.178l3.625-1.69c-3.224-6.916-7.85-12.248-13.892-15.909l-2.073 3.421zm12.34 14.178c2.917 6.26 4.407 13.956 4.38 23.16l4 .011c.028-9.625-1.527-17.936-4.755-24.861l-3.626 1.69zm4.38 23.165c0 9.261-1.504 17.064-4.43 23.474l3.64 1.661c3.22-7.055 4.79-15.455 4.79-25.135h-4zm-4.43 23.474c-2.928 6.416-7.055 11.254-12.363 14.601l2.134 3.384c6.034-3.805 10.651-9.275 13.868-16.324l-3.638-1.661zm-12.36 14.6c-5.274 3.315-11.61 5.015-19.091 5.015v4c8.105 0 15.207-1.849 21.22-5.629l-2.13-3.386zm-19.091-9.926c4.88 0 8.754-2.609 11.594-7.24l-3.41-2.09c-2.3 3.75-5.02 5.33-8.184 5.33v4zm11.592-7.236c2.896-4.703 4.18-11.785 4.152-20.918l-4 .013c.028 8.913-1.258 15.073-3.558 18.807l3.406 2.098zm4.152-20.918c-.028-8.936-1.329-15.855-4.205-20.42l-3.384 2.133c2.264 3.593 3.561 9.58 3.589 18.3l4-.013zm-4.2-20.41c-2.824-4.532-6.688-7.06-11.544-7.06v4c3.189 0 5.89 1.55 8.15 5.175l3.394-2.116zm-11.544-7.06c-4.857 0-8.72 2.528-11.545 7.06l3.395 2.115c2.26-3.626 4.96-5.176 8.15-5.176v-4zm-11.545 7.06c-2.841 4.558-4.143 11.47-4.2 20.404l4 .025c.056-8.722 1.352-14.716 3.595-18.314l-3.395-2.116zm-4.2 20.41c-.028 9.131 1.242 16.21 4.106 20.91l3.416-2.082c-2.277-3.737-3.55-9.9-3.522-18.815l-4-.013zm4.114 20.923c2.867 4.625 6.753 7.231 11.63 7.231v-4c-3.167 0-5.902-1.584-8.23-5.34l-3.4 2.109zm59.61 8.416h-2v2h2v-2zm0-18.102l-1.688-1.073-.312.49v.583h2zm34.529-54.307v-2h-1.099l-.589.927 1.688 1.073zm29.5 0h2v-2h-2v2zm0 54.307h-2v2h2v-2zm9.889 0h2v-2h-2v2zm0 18.102v2h2v-2h-2zm-9.889 0v-2h-2v2h2zm0 13.409v2h2v-2h-2zm-22.293 0h-2v2h2v-2zm0-13.41h2v-2h-2v2zm.503-18.101v2h2v-2h-2zm0-30.17h2v-2h-2v2zm-.671 0v-2h-1.103l-.588.932 1.691 1.067zm-18.605 29.5l-1.691-1.068-.309.49v.577h2zm0 .67h-2v2h2v-2zM88.056 73.59V55.489h-4V73.59h4zm-.312-17.03l34.528-54.306-3.375-2.146-34.529 54.307 3.376 2.146zm32.841-53.38h29.5v-4h-29.5v4zm27.5-2v54.31h4V1.182h-4zm2 56.308h9.889v-4h-9.889v4zm7.889-2V73.59h4V55.489h-4zm2 16.102h-9.889v4h9.889v-4zm-11.889 2V87h4V73.59h-4zm2 11.409h-22.293v4h22.293v-4zm-20.293 2V73.59h-4V87h4zm-2-15.41H86.056v4h41.736v-4zm2.503-16.101v-30.17h-4v30.17h4zm-2-32.17h-.671v4h.671v-4zm-2.362.932l-18.605 29.5 3.383 2.134 18.605-29.5-3.383-2.134zm-18.914 30.567v.67h4v-.67h-4zm2 2.67h19.276v-4h-19.276v4z" fill="#fff"/></svg>