<svg width="57" height="71" viewBox="0 0 57 71" fill="none" xmlns="http://www.w3.org/2000/svg"><path opacity=".75" d="M55.452 69.75l-5.439-2.362-5.552 2.676-4.279-3.8-5.804 2.858-2.075-2.213-4.453.836c.026-3.303-.035-5.743-.192-6.737-3.059-.523-11.042-2.544-16.603-3.73-5.028-1.08-12.227-15.034-9.682-16.088 2.544-1.055 21.544 1.324 21.544 1.324s.34-31.785 2.135-40.064c1.787-8.28 8.977 16.585 9.578 18.18.602 1.595 3.26 1.307 6.58 1.5 3.33.2 3.417 1.83 7.749-6.014 4.331-7.844 7.355-13.919 7.495-8.167.122 5.744-.872 55.97-1.002 61.8z" fill="#fff"/><path d="M30.412 27.69v1.508h3.181v1.873h-3.181v3.312h-2.11v-8.567h5.823v1.874h-3.713zm5.065 6.684v-8.567h2.109v8.567h-2.11zm7.363 0h-1.56l-2.833-8.567h2.18l1.446 4.794 1.42-4.794h2.188l-2.841 8.567zm3.705 0v-8.567h5.822v1.874h-3.722v1.43h3.181v1.873h-3.18v1.508h3.72v1.874h-5.821v.008zm-14.59 5.421v1.508h3.18v1.874h-3.18v3.312h-2.11V37.92h5.823v1.874h-3.713zm10.213 5.795c-.627.628-1.35.96-2.396.96-1.046 0-1.77-.34-2.397-.96-.907-.906-.863-2.108-.863-3.39 0-1.29-.035-2.492.863-3.39.627-.627 1.35-.967 2.397-.967 1.045 0 1.769.34 2.396.967.907.907.863 2.11.863 3.39 0 1.282.044 2.493-.863 3.39zm-1.551-5.499c-.157-.209-.453-.374-.845-.374-.384 0-.689.165-.846.374-.192.253-.314.54-.314 2.11 0 1.56.122 1.838.314 2.091.157.2.453.384.846.384.383 0 .688-.183.845-.384.192-.253.314-.532.314-2.092 0-1.568-.122-1.856-.314-2.109zm8.21 6.389l-1.517-3.19h-.715v3.19h-2.109v-8.567h3.39c1.9 0 2.929 1.351 2.929 2.754 0 1.168-.723 1.9-1.395 2.24l1.857 3.573h-2.44zm-1.038-6.676h-1.194v1.735h1.194c.576 0 .916-.419.916-.863 0-.453-.34-.872-.916-.872zM34.916 57.75c-.592.592-1.42.845-2.31.845h-3.18v-8.567h3.18c.89 0 1.718.253 2.31.845 1.003 1.003.89 2.092.89 3.443 0 1.333.104 2.431-.89 3.434zm-1.446-5.37c-.192-.288-.48-.48-1.011-.48h-.924v4.811h.924c.531 0 .819-.191 1.01-.479.166-.244.227-.47.227-1.926 0-1.447-.06-1.69-.226-1.926zm9.169 5.316c-.628.628-1.35.959-2.397.959-1.045 0-1.769-.34-2.396-.959-.907-.906-.863-2.109-.863-3.39 0-1.29-.035-2.493.863-3.39.627-.628 1.35-.959 2.396-.959 1.046 0 1.77.34 2.397.959.906.906.863 2.109.863 3.39 0 1.281.035 2.484-.863 3.39zm-1.551-5.5c-.157-.208-.462-.374-.846-.374-.383 0-.688.166-.845.375-.192.253-.314.54-.314 2.109 0 1.56.122 1.839.314 2.092.157.209.462.383.845.383.384 0 .689-.183.846-.383.191-.253.313-.532.313-2.092 0-1.569-.122-1.856-.313-2.11zm9.332 5.5c-.732.759-1.55.959-2.492.959-1.002 0-1.76-.34-2.38-.959-.906-.906-.862-2.109-.862-3.39 0-1.29-.035-2.493.863-3.39.627-.628 1.35-.959 2.379-.959 2.205 0 3.138 1.43 3.347 2.841h-2.118c-.166-.653-.506-.958-1.229-.958-.383 0-.671.165-.828.374-.192.253-.314.54-.314 2.11 0 1.56.122 1.864.314 2.117.157.21.444.358.828.358.445 0 .75-.131.941-.34.244-.244.323-.593.323-.915v-.131h-1.264v-1.76h3.355v1.193c.01 1.386-.209 2.188-.862 2.85z" fill="#3F3F3F"/></svg>