<svg width="177" height="93" viewBox="0 0 177 93" fill="none" xmlns="http://www.w3.org/2000/svg"><path d="M60.042 64.61H38.014l-19.01-40.632L30.222 0l29.82 64.61zm39.484 0H77.498l-19.01-40.632L69.707 0l29.82 64.61zM0 64.595h20.372L10.19 42.848 0 64.595z" fill="#BDC6C6"/><path d="M143.194 1.836h-50.61l-2.356-.195s2.948 16.608 18.557 16.608h31.353c7.196 0 15.451 5.083 15.451 14.618 0 9.016-6.661 15.13-15.903 15.13h-24.194l-1.934-.138s5.329 16.551 20.054 16.551h9.705C161.843 64.41 177 50.357 177 33.123c0-17.233-15.27-31.287-33.806-31.287z" fill="#FF7F00"/><path d="M146.231 41.33c-1.065-3.34-3.359-7.653-5.704-11.787a222.058 222.058 0 0 0-3.04-5.139h-35.318l-2.17-.128s2.946 17.054 18.556 17.054h27.676z" fill="#FF7F00"/><path d="M31.67 92.354v-7.899h1.878l2.083 3.34 2.083-3.34h1.877v7.899h-1.733v-5.16l-2.227 3.375h-.047l-2.206-3.34v5.125H31.67zm12.259 0v-7.899h5.976V86h-4.243v1.6h3.734v1.544h-3.734V90.8h4.3v1.544h-6.033v.01zm12.021 0v-6.611h-2.51v-1.288h6.43v1.288h-2.51v6.61h-1.41zm6.338-.001l3.61-7.955h.84l3.61 7.956h-.962l-.926-2.088h-4.31l-.941 2.087h-.92zm2.207-2.892h3.61l-1.8-4.026-1.81 4.026zm9.672 2.893v-7.899h.586v7.355h4.65v.544h-5.236zm16.584 0v-7.899h2.639c1.24 0 2.248.374 3.034 1.123.787.75 1.178 1.693 1.178 2.826 0 1.129-.396 2.067-1.183 2.821s-1.795 1.129-3.024 1.129h-2.644zm.587-.544h2.047c1.08 0 1.95-.323 2.607-.97.659-.646.988-1.456.988-2.436 0-.964-.33-1.77-.988-2.426-.658-.656-1.527-.98-2.607-.98h-2.047v6.812zm10.638.544v-7.899h5.724v.81h-4.829v2.698h4.32v.81h-4.32v2.765h4.886v.81h-5.781v.006zm12.955.112c-1.214 0-2.294-.42-3.235-1.261l.555-.657a4.58 4.58 0 0 0 1.27.846c.427.18.906.272 1.446.272.529 0 .951-.128 1.28-.38.329-.25.489-.579.489-.984 0-.385-.144-.687-.432-.913-.288-.226-.828-.42-1.631-.585-.941-.205-1.62-.477-2.036-.826-.417-.343-.623-.835-.623-1.477 0-.625.247-1.138.736-1.544.489-.405 1.111-.61 1.867-.61a4.32 4.32 0 0 1 2.782.97l-.519.687c-.7-.57-1.466-.857-2.284-.857-.504 0-.91.123-1.224.364a1.12 1.12 0 0 0-.463.929c0 .39.15.697.448.923.298.226.864.43 1.702.61.9.195 1.553.467 1.965.816.411.349.617.83.617 1.441 0 .672-.252 1.21-.756 1.62-.514.411-1.162.616-1.954.616zm6.94-.112v-7.899h1.394v7.899h-1.394zm9.693.133c-1.224 0-2.212-.385-2.973-1.154-.756-.77-1.136-1.75-1.136-2.929 0-1.128.385-2.093 1.157-2.888.771-.795 1.749-1.195 2.926-1.195.664 0 1.23.088 1.698.267.468.18.915.446 1.347.805l-.885 1.052a3.677 3.677 0 0 0-1.002-.636c-.335-.139-.741-.21-1.219-.21-.726 0-1.332.276-1.826.825-.494.549-.741 1.21-.741 1.985 0 .82.247 1.498.746 2.026.499.528 1.147.795 1.944.795.741 0 1.378-.2 1.913-.6v-1.477h-2.026v-1.206h3.374v3.319c-.952.81-2.052 1.22-3.297 1.22zm7.252-.133v-7.899h1.605l3.714 4.862v-4.862h1.717v7.899h-1.481l-3.837-5.022v5.022h-1.718z" fill="#fff"/></svg>