<svg width="218" height="114" viewBox="0 0 218 114" fill="none" xmlns="http://www.w3.org/2000/svg"><path d="M73.95 79.576H46.82L23.406 29.532 37.221 0 73.95 79.576zm48.631 0H95.45L72.037 29.532 85.853 0l36.728 79.576zM0 79.557h25.091L12.55 52.773 0 79.557zM176.363 2.262H114.03l-2.901-.24s3.63 20.454 22.855 20.454H172.6c8.862 0 19.029 6.26 19.029 18.004 0 11.105-8.203 18.635-19.587 18.635h-29.798l-2.381-.17s6.562 20.385 24.698 20.385h11.954C199.332 79.33 218 62.021 218 40.796c0-21.226-18.807-38.534-41.637-38.534z" fill="#fff"/><path d="M180.104 50.903c-1.312-4.112-4.137-9.425-7.025-14.517-1.565-2.76-3.744-6.33-3.744-6.33h-43.5l-2.673-.157s3.63 21.004 22.855 21.004h34.087zM39.007 113.747v-9.729h2.312l2.565 4.113 2.566-4.113h2.312v9.729h-2.135v-6.355l-2.743 4.156h-.057l-2.717-4.112v6.311h-2.103zm15.097 0v-9.729h7.361v1.902H56.24v1.971h4.599v1.901H56.24v2.04h5.296v1.902h-7.43v.013zm14.806 0v-8.143h-3.09v-1.586h7.917v1.586h-3.09v8.143H68.91zm7.807-.001l4.447-9.798h1.032l4.447 9.798H85.46l-1.14-2.571h-5.31l-1.16 2.571h-1.133zm2.717-3.563h4.447l-2.217-4.959-2.23 4.959zm11.913 3.564v-9.729h.722v9.059h5.726v.67h-6.448zm20.426 0v-9.729h3.249c1.527 0 2.769.461 3.738 1.384.969.922 1.451 2.084 1.451 3.48 0 1.39-.488 2.546-1.457 3.475-.97.928-2.211 1.39-3.725 1.39h-3.256zm.722-.67h2.521c1.33 0 2.401-.398 3.212-1.194.811-.796 1.216-1.794 1.216-3.001 0-1.187-.405-2.179-1.216-2.988-.811-.808-1.882-1.206-3.212-1.206h-2.521v8.389zm13.102.67v-9.729h7.051v.998h-5.949v3.323h5.321v.998h-5.321v3.405h6.018v.998h-7.12v.007zm15.956.138c-1.495 0-2.825-.518-3.985-1.554l.685-.809c.519.474 1.045.822 1.564 1.043.526.221 1.115.334 1.78.334.653 0 1.172-.157 1.578-.467a1.45 1.45 0 0 0 .601-1.213c0-.474-.177-.846-.532-1.124-.354-.278-1.02-.518-2.008-.72-1.159-.253-1.995-.588-2.508-1.018-.513-.423-.767-1.029-.767-1.819 0-.771.304-1.402.906-1.901.602-.499 1.368-.752 2.3-.752 1.292 0 2.432.398 3.427 1.194l-.64.846c-.862-.701-1.806-1.055-2.813-1.055-.621 0-1.121.152-1.507.449a1.376 1.376 0 0 0-.571 1.143c0 .48.184.859.552 1.137.367.278 1.064.531 2.096.752 1.109.24 1.913.575 2.42 1.005.507.429.76 1.023.76 1.775 0 .827-.31 1.49-.931 1.996-.633.505-1.432.758-2.407.758zm8.548-.138v-9.729h1.717v9.729h-1.717zm11.938.163c-1.507 0-2.723-.474-3.661-1.421-.931-.948-1.4-2.154-1.4-3.607 0-1.39.475-2.578 1.425-3.557.951-.979 2.154-1.472 3.605-1.472.817 0 1.514.108 2.09.329a5.89 5.89 0 0 1 1.66.991l-1.09 1.295c-.412-.353-.817-.612-1.235-.783-.412-.17-.912-.259-1.501-.259-.893 0-1.641.341-2.249 1.017-.608.676-.912 1.491-.912 2.445 0 1.011.304 1.845.918 2.495.615.651 1.413.979 2.395.979.912 0 1.697-.246 2.356-.739v-1.819h-2.496v-1.485h4.156v4.088c-1.172.998-2.528 1.503-4.061 1.503zm8.933-.163v-9.729h1.976l4.574 5.989v-5.989h2.115v9.729h-1.824l-4.726-6.185v6.185h-2.115z" fill="#fff"/></svg>