<svg xmlns="http://www.w3.org/2000/svg" width="212" height="111" viewBox="0 0 212 111"><path d="M72.775 76.874H47.137L25.015 29.462 38.069 1.484zm45.954 0H93.092l-22.12-47.412L84.025 1.484zM2.91 76.859h23.705L14.763 51.485z" fill="none" stroke="#FFF" stroke-miterlimit="10"/><g fill="none" stroke="#FFF" stroke-miterlimit="10"><path d="M169.54 3.628h-58.898l-2.737-.229s3.426 19.381 21.592 19.381h36.474c8.381 0 17.982 5.933 17.982 17.055 0 10.519-7.741 17.661-18.512 17.661h-28.147l-2.257-.165s6.2 19.315 23.338 19.315h11.296c21.548 0 39.199-16.402 39.199-36.511-.001-20.114-17.768-36.507-39.33-36.507z"/><path d="M173.067 49.711c-1.241-3.89-3.895-8.932-6.644-13.761-1.468-2.612-3.523-5.989-3.523-5.989h-41.103l-2.53-.152s3.434 19.901 21.597 19.901l32.203.001z"/></g><path d="M39.897 100.031h2.183l3.03 3.892 3.016-3.892h2.184v9.219h-2.018v-6.019l-3.182 3.935h-.058l-3.168-3.901v5.985h-1.987v-9.219zm15.468 0h7.539v1.801h-5.525v1.871h4.342v1.806h-4.342v1.935h5.593v1.807h-7.606v-9.22zm14.597 1.421h-3.53v-1.421h8.666v1.421h-3.625v7.798h-1.512v-7.798zm11.563-1.494h.973l4.203 9.292H85.58l-1.08-2.441h-5.017l-1.1 2.441h-1.057l4.199-9.292zm2.572 5.915l-2.1-4.697-2.101 4.697h4.201zm7.057-5.842h.682v8.583h5.416v.636h-6.097v-9.219zm16.797 0h3.07c2.899 0 4.898 1.984 4.898 4.606 0 2.601-1.999 4.612-4.898 4.612h-3.07v-9.218zm3.07 8.583c2.572 0 4.202-1.749 4.202-3.977 0-2.188-1.63-3.979-4.202-3.979h-2.386v7.955h2.386zm9.996-8.583h7.271v.943h-6.223v3.148h5.027v.95h-5.027v3.227h6.278v.95h-7.327v-9.218zm11.915 7.869l.64-.757c.957.863 1.882 1.3 3.173 1.3 1.225 0 2.041-.657 2.041-1.593 0-.857-.456-1.342-2.382-1.749-2.134-.464-3.1-1.148-3.1-2.691 0-1.442 1.267-2.515 3.026-2.515 1.341 0 2.3.386 3.236 1.137l-.606.8c-.861-.691-1.717-1.002-2.658-1.002-1.199 0-1.961.656-1.961 1.514 0 .874.474 1.359 2.504 1.792 2.058.451 2.993 1.2 2.993 2.636 0 1.579-1.31 2.609-3.137 2.609-1.472 0-2.672-.487-3.769-1.481zm12.436-7.869h1.615v9.219h-1.615v-9.219zm7.097 4.607c0-2.579 1.971-4.771 4.756-4.771 1.604 0 2.601.45 3.545 1.259l-1.029 1.218c-.718-.604-1.416-.984-2.586-.984-1.698 0-2.987 1.486-2.987 3.278 0 1.899 1.259 3.293 3.145 3.293.854 0 1.656-.28 2.211-.692v-1.729h-2.354v-1.416h3.927v3.88c-.913.776-2.214 1.437-3.839 1.437-2.89-.002-4.789-2.059-4.789-4.773zm13.828-4.607h1.869l4.908 5.677v-5.677h1.999v9.219h-1.729l-5.052-5.863v5.863h-1.995v-9.219z" fill="#FFF"/></svg>