<svg width="200" height="105" viewBox="0 0 200 105" fill="none" xmlns="http://www.w3.org/2000/svg"><path d="M67.844 73.006h-24.89l-21.48-45.912L34.149 0l33.695 73.006zm44.615 0h-24.89l-21.48-45.912L78.764 0l33.695 73.006zM0 72.988h23.02L11.513 48.416 0 72.987zM161.801 2.075h-57.186l-2.662-.22s3.33 18.765 20.968 18.765h35.428c8.13 0 17.458 5.744 17.458 16.518 0 10.188-7.526 17.096-17.97 17.096H130.5l-2.186-.156s6.021 18.702 22.66 18.702h10.966c20.933 0 38.06-15.88 38.06-35.353S182.746 2.075 161.801 2.075z" fill="#EBEBEB"/><path d="M165.233 46.7c-1.203-3.773-3.795-8.647-6.445-13.318-1.436-2.532-3.435-5.807-3.435-5.807h-39.908l-2.452-.145s3.33 19.27 20.968 19.27h31.272zM35.786 104.355V95.43h2.12l2.355 3.773 2.353-3.773h2.122v8.925h-1.959v-5.83l-2.516 3.813h-.053l-2.493-3.773v5.79h-1.93zm13.851 0V95.43h6.753v1.744h-4.795v1.808h4.22v1.745h-4.22v1.872h4.859v1.744h-6.817v.012zm13.583 0v-7.47h-2.836V95.43h7.265v1.454h-2.836v7.471H63.22zm7.162 0l4.08-8.99h.947l4.08 8.99h-1.087l-1.046-2.359h-4.87l-1.063 2.359h-1.04zm2.493-3.269h4.08l-2.034-4.55-2.046 4.55zm10.929 3.269V95.43h.663v8.31h5.253v.615h-5.916zm18.74 0V95.43h2.981c1.401 0 2.54.423 3.429 1.269.889.846 1.331 1.912 1.331 3.193 0 1.275-.448 2.336-1.337 3.188-.889.852-2.028 1.275-3.417 1.275h-2.987zm.662-.615h2.313c1.221 0 2.203-.365 2.947-1.095.744-.73 1.116-1.646 1.116-2.753 0-1.09-.372-2-1.116-2.741-.744-.742-1.726-1.107-2.947-1.107h-2.313v7.696zm12.021.615V95.43h6.468v.915h-5.457v3.049h4.881v.915h-4.881v3.124h5.521v.916h-6.532v.006zm14.638.127c-1.372 0-2.592-.475-3.656-1.426l.628-.742c.477.435.959.754 1.436.957a4.174 4.174 0 0 0 1.633.307c.598 0 1.075-.145 1.447-.429a1.33 1.33 0 0 0 .552-1.113c0-.434-.163-.776-.488-1.031-.326-.255-.936-.476-1.843-.661-1.063-.232-1.83-.54-2.301-.933-.471-.389-.703-.945-.703-1.67 0-.706.279-1.286.831-1.744.552-.458 1.255-.69 2.109-.69a4.89 4.89 0 0 1 3.145 1.096l-.587.777c-.791-.644-1.657-.968-2.581-.968-.569 0-1.028.139-1.383.411a1.264 1.264 0 0 0-.523 1.05c0 .44.169.787.506 1.042.337.255.976.487 1.923.69 1.017.22 1.755.527 2.22.922.465.394.698.938.698 1.628 0 .759-.285 1.368-.855 1.831-.581.464-1.313.696-2.208.696zm7.842-.127V95.43h1.575v8.925h-1.575zm10.953.15c-1.383 0-2.499-.435-3.359-1.304-.854-.87-1.284-1.976-1.284-3.31 0-1.275.435-2.364 1.307-3.262.872-.899 1.976-1.35 3.307-1.35.75 0 1.389.098 1.918.3a5.402 5.402 0 0 1 1.522.91l-.999 1.189a4.167 4.167 0 0 0-1.133-.719c-.378-.157-.837-.238-1.378-.238-.819 0-1.505.313-2.063.933-.558.62-.837 1.368-.837 2.243 0 .928.279 1.693.843 2.29.564.596 1.296.898 2.197.898.837 0 1.557-.226 2.162-.678v-1.669h-2.29v-1.362h3.812v3.749c-1.075.916-2.319 1.38-3.725 1.38zm8.194-.15V95.43h1.814l4.196 5.494V95.43h1.941v8.925h-1.674l-4.335-5.674v5.674h-1.942z" fill="#EBEBEB"/></svg>