<svg width="392" height="41" viewBox="0 0 392 41" fill="none" xmlns="http://www.w3.org/2000/svg"><path d="M37.962 40.85H24.034L12.015 15.16 19.108 0l18.854 40.85zm24.963 0H48.998L36.979 15.16 44.071 0l18.854 40.85zM0 40.84h12.88L6.442 27.09 0 40.84z" fill="#fff"/><path d="M90.534 1.161H58.535l-1.49-.123s1.864 10.5 11.733 10.5h19.823c4.55 0 9.768 3.214 9.768 9.242 0 5.7-4.21 9.566-10.054 9.566H73.019l-1.222-.087s3.368 10.464 12.678 10.464h6.137c11.712 0 21.295-8.885 21.295-19.78 0-10.897-9.654-19.782-21.373-19.782z" fill="url(#a)"/><path d="M92.454 26.13c-.673-2.11-2.123-4.838-3.606-7.451-.803-1.418-1.922-3.25-1.922-3.25h-22.33l-1.372-.08S65.087 26.13 74.956 26.13h17.498z" fill="url(#b)"/><path d="M136.776 31.991V14.199h4.228l4.693 7.521 4.692-7.521h4.228V31.99h-3.904V20.368l-5.016 7.602h-.105l-4.97-7.52v11.54h-3.846zm27.612 0V14.199h13.462v3.477h-9.558v3.605h8.412v3.478h-8.412v3.731h9.686v3.478h-13.59v.023zm27.079 0V17.099h-5.653v-2.9h14.481v2.9h-5.653V31.99h-3.175zm14.278-.001l8.133-17.919h1.888l8.133 17.92h-2.166l-2.086-4.703h-9.708l-2.121 4.703h-2.073zm4.97-6.515h8.133l-4.055-9.07-4.078 9.07zm21.786 6.516V14.199h1.321v16.567h10.473v1.225h-11.794zm34.647 0V14.199h5.943c2.792 0 5.063.843 6.836 2.53 1.772 1.687 2.653 3.813 2.653 6.366 0 2.542-.892 4.656-2.665 6.354-1.772 1.699-4.043 2.542-6.812 2.542h-5.955zm1.321-1.225h4.611c2.433 0 4.391-.728 5.874-2.183 1.482-1.456 2.224-3.281 2.224-5.488 0-2.172-.742-3.986-2.224-5.465-1.483-1.479-3.441-2.207-5.874-2.207h-4.611v15.343zm23.963 1.225V14.199h12.894v1.825h-10.879v6.077h9.732v1.826h-9.732v6.227h11.007v1.825h-13.022v.012zm29.181.253c-2.734 0-5.167-.947-7.287-2.842l1.251-1.479c.95.867 1.912 1.502 2.862 1.907.961.404 2.039.612 3.255.612 1.194 0 2.144-.29 2.885-.855.742-.566 1.101-1.306 1.101-2.218 0-.867-.325-1.549-.974-2.057-.648-.508-1.865-.947-3.672-1.317-2.12-.462-3.65-1.075-4.588-1.86-.938-.774-1.402-1.883-1.402-3.328 0-1.409.556-2.564 1.657-3.477 1.101-.913 2.502-1.375 4.205-1.375 2.364 0 4.449.728 6.268 2.184l-1.17 1.548c-1.576-1.283-3.302-1.93-5.144-1.93-1.135 0-2.05.278-2.757.82-.707.544-1.043 1.248-1.043 2.092 0 .878.336 1.571 1.008 2.08.672.508 1.946.97 3.835 1.374 2.027.44 3.499 1.052 4.425 1.837.927.786 1.391 1.872 1.391 3.247 0 1.513-.568 2.726-1.703 3.65-1.159.925-2.619 1.387-4.403 1.387zm15.634-.253V14.199h3.139V31.99h-3.139zm21.834.299c-2.757 0-4.982-.866-6.696-2.6-1.703-1.733-2.561-3.94-2.561-6.597 0-2.541.869-4.713 2.607-6.504 1.738-1.79 3.939-2.692 6.592-2.692 1.495 0 2.769.196 3.823.6 1.055.405 2.062 1.006 3.036 1.815l-1.993 2.368c-.753-.647-1.495-1.12-2.259-1.433-.753-.311-1.669-.473-2.746-.473-1.633 0-3.001.624-4.113 1.86-1.112 1.236-1.668 2.726-1.668 4.471 0 1.849.556 3.374 1.68 4.564 1.124 1.19 2.583 1.79 4.379 1.79 1.668 0 3.105-.45 4.31-1.351V24.78h-4.565v-2.715h7.6v7.475c-2.143 1.826-4.622 2.75-7.426 2.75zm16.336-.299V14.199h3.615l8.365 10.952V14.2h3.869v17.79h-3.336l-8.643-11.31v11.31h-3.87z" fill="#fff"/><defs><linearGradient id="a" x1="84.477" y1="1.038" x2="84.477" y2="40.723" gradientUnits="userSpaceOnUse"><stop stop-color="#fff"/><stop offset="1" stop-color="#fff"/></linearGradient><linearGradient id="b" x1="77.839" y1="15.348" x2="77.839" y2="26.13" gradientUnits="userSpaceOnUse"><stop stop-color="#fff"/><stop offset="1" stop-color="#fff"/></linearGradient></defs></svg>