<svg width="212" height="111" viewBox="0 0 212 111" fill="none" xmlns="http://www.w3.org/2000/svg"><path d="M23.297 28.778l12.87-27.589 34.914 75.854H45.815L23.297 28.778zm47.257 0l12.87-27.589 34.914 75.854H93.072L70.554 28.778zM.785 77.025l11.41-24.419 11.402 24.419H.785z" fill="#101010" stroke="#fff"/><path d="M110.767 2.701l.021.002h60.593c21.946 0 39.961 16.678 39.961 37.05 0 20.373-17.882 37.05-39.813 37.05h-11.616c-8.598 0-14.468-4.84-18.212-9.737-1.872-2.447-3.202-4.897-4.065-6.737a33.924 33.924 0 0 1-.949-2.217l-.046-.12 1.549.11.018.002h28.975c5.642 0 10.528-1.873 14.008-5.158 3.482-3.288 5.525-7.962 5.525-13.501 0-11.801-10.193-18.044-18.992-18.044h-37.525c-9.125 0-14.537-4.853-17.691-9.737-1.579-2.447-2.588-4.898-3.201-6.739a28.02 28.02 0 0 1-.644-2.218l-.044-.184 2.148.178z" stroke="#fff"/><path d="M167.757 35.703c2.658 4.698 5.235 9.545 6.569 13.4h-32.431c-9.119 0-14.532-4.98-17.688-10-1.58-2.515-2.589-5.033-3.203-6.925a29.38 29.38 0 0 1-.644-2.28 9.755 9.755 0 0 1-.053-.226l1.946.116h42.02l.208.345c.222.367.533.885.893 1.487a215.665 215.665 0 0 1 2.383 4.083z" stroke="#fff"/><path d="M43.263 105.631l2.347-3.772h1.469v8.48h-1.075v-7.362l-.917 1.395-2.276 3.458-2.25-3.416-.918-1.392v7.317h-1.044v-8.48h1.469l2.346 3.772.425.682.424-.682zm11.58 3.843h4.646v.853h-6.22v-8.468h6.152v.853h-5.078v2.921h4.469v.853h-4.47v2.988h.5zm13.503-6.57v7.435h-.687v-7.935h-3.004v-.545h6.695v.545h-3.004v.5zm14.242 5.227l-.116-.264h.005l-.314-.704-.98-2.2 2.432 5.376h-.05l-.977-2.208zm-7.069 2.208l.507-1.119-.503 1.119h-.004z" fill="#91A4B0" stroke="#fff"/><mask id="a" fill="#fff"><path d="M88.964 110.839v-9.48h.701v8.828h5.565v.652h-6.266z"/></mask><path d="M88.964 110.839v-9.48h.701v8.828h5.565v.652h-6.266z" fill="#91A4B0"/><path d="M88.964 110.839h-1v1h1v-1zm0-9.48v-1h-1v1h1zm.701 0h1v-1h-1v1zm0 8.828h-1v1h1v-1zm5.565 0h1v-1h-1v1zm0 .652v1h1v-1h-1zm-5.266 0v-9.48h-2v9.48h2zm-1-8.48h.701v-2h-.701v2zm-.299-1v8.828h2v-8.828h-2zm1 9.828h5.565v-2h-5.565v2zm4.565-1v.652h2v-.652h-2zm1-.348h-6.266v2h6.266v-2z" fill="#fff" mask="url(#a)"/><mask id="b" fill="#fff"><path d="M109.53 110.839v-9.48h3.158c1.483 0 2.69.45 3.632 1.348.942.899 1.409 2.032 1.409 3.392 0 1.355-.474 2.481-1.415 3.386-.942.905-2.149 1.354-3.62 1.354h-3.164zm.702-.652h2.45c1.292 0 2.333-.388 3.121-1.164.788-.775 1.182-1.748 1.182-2.924 0-1.157-.394-2.123-1.182-2.911-.788-.788-1.829-1.176-3.121-1.176h-2.45v8.175z"/></mask><path d="M109.53 110.839v-9.48h3.158c1.483 0 2.69.45 3.632 1.348.942.899 1.409 2.032 1.409 3.392 0 1.355-.474 2.481-1.415 3.386-.942.905-2.149 1.354-3.62 1.354h-3.164zm.702-.652h2.45c1.292 0 2.333-.388 3.121-1.164.788-.775 1.182-1.748 1.182-2.924 0-1.157-.394-2.123-1.182-2.911-.788-.788-1.829-1.176-3.121-1.176h-2.45v8.175z" fill="#91A4B0"/><path d="M109.53 101.359v-1h-1v1h1zm.702 8.828h-1v1h1v-1zm0-8.175v-1h-1v1h1zm.298 8.827v-9.48h-2v9.48h2zm-1-8.48h3.158v-2h-3.158v2zm3.158 0c1.264 0 2.211.375 2.941 1.072l1.381-1.447c-1.153-1.101-2.619-1.625-4.322-1.625v2zm2.941 1.072c.733.699 1.1 1.565 1.1 2.668h2c0-1.617-.568-3.017-1.719-4.115l-1.381 1.447zm1.1 2.668c0 1.091-.369 1.955-1.108 2.665l1.385 1.442c1.145-1.099 1.723-2.489 1.723-4.107h-2zm-1.108 2.665c-.731.702-1.677 1.075-2.927 1.075v2c1.692 0 3.159-.525 4.312-1.633l-1.385-1.442zm-2.927 1.075h-3.164v2h3.164v-2zm-2.462 1.348h2.45v-2h-2.45v2zm2.45 0c1.507 0 2.816-.46 3.822-1.451l-1.403-1.425c-.569.56-1.341.876-2.419.876v2zm3.822-1.451c.992-.976 1.481-2.211 1.481-3.637h-2c0 .926-.299 1.636-.884 2.212l1.403 1.425zm1.481-3.637c0-1.412-.493-2.636-1.475-3.618l-1.414 1.414c.593.593.889 1.302.889 2.204h2zm-1.475-3.618c-1.008-1.009-2.32-1.469-3.828-1.469v2c1.077 0 1.846.315 2.414.883l1.414-1.414zm-3.828-1.469h-2.45v2h2.45v-2zm-3.45 1v8.175h2v-8.175h-2z" fill="#fff" mask="url(#b)"/><path d="M123.532 109.86v.473h-.071v-8.474h.071v8.001zm11.771-.462l.016-.019c.249.198.503.371.759.517a5.408 5.408 0 0 1-.775-.498zm5.189.449a2.235 2.235 0 0 1-.134.101c.511-.396.77-.934.77-1.571 0-.607-.236-1.118-.708-1.489-.444-.348-1.192-.599-2.157-.797-1.1-.241-1.815-.546-2.219-.885l-.003-.003c-.361-.298-.564-.734-.564-1.387 0-.515.167-.939.516-1.298a1.826 1.826 0 0 0-.445 1.224c0 .616.246 1.136.734 1.506.452.344 1.226.607 2.234.823 1.045.227 1.733.531 2.133.871.365.31.563.741.563 1.349 0 .661-.238 1.163-.72 1.556zm.208-7.326a4.993 4.993 0 0 0-1.041-.542c.37.125.723.298 1.058.519l-.017.023zm6.571 7.818v-8.48h.668v8.48h-.668zm13.437-3.84h-1.925v-.447h3.038v3.247a5.38 5.38 0 0 1-3.446 1.201c-1.349 0-2.397-.42-3.202-1.236-.803-.82-1.216-1.866-1.216-3.164 0-1.228.413-2.259 1.244-3.118.823-.85 1.86-1.282 3.143-1.282.753 0 1.366.1 1.852.287a5 5 0 0 1 1.074.578l-.411.49a4.507 4.507 0 0 0-.939-.532c-.475-.197-1.03-.29-1.65-.29-1.015 0-1.875.397-2.557 1.157-.678.755-1.014 1.67-1.014 2.716 0 1.093.331 2.034 1.028 2.775.701.743 1.612 1.111 2.691 1.111.982 0 1.854-.268 2.59-.82l.2-.15v-2.523h-.5zm13.212.696v-5.336h1.056v8.48h-1.025l-4.442-5.829-.898-1.178v7.007h-1.056v-8.48h1.173l4.294 5.639.898 1.179v-1.482z" fill="#91A4B0" stroke="#fff"/></svg>